<?xml version="1.0" encoding="UTF-8" standalone="no"?>
<!-- Created with Inkscape (http://www.inkscape.org/) -->

<svg
   xmlns:dc="http://purl.org/dc/elements/1.1/"
   xmlns:cc="http://creativecommons.org/ns#"
   xmlns:rdf="http://www.w3.org/1999/02/22-rdf-syntax-ns#"
   xmlns:svg="http://www.w3.org/2000/svg"
   xmlns="http://www.w3.org/2000/svg"
   xmlns:sodipodi="http://sodipodi.sourceforge.net/DTD/sodipodi-0.dtd"
   xmlns:inkscape="http://www.inkscape.org/namespaces/inkscape"
   id="svg2"
   version="1.1"
   inkscape:version="0.91 r13725"
   xml:space="preserve"
   width="478.82901"
   height="82.949997"
   viewBox="0 0 478.82901 82.949996"
   sodipodi:docname="logo.svg"><metadata
     id="metadata8"><rdf:RDF><cc:Work
         rdf:about=""><dc:format>image/svg+xml</dc:format><dc:type
           rdf:resource="http://purl.org/dc/dcmitype/StillImage" /><dc:title></dc:title></cc:Work></rdf:RDF></metadata><defs
     id="defs6"><clipPath
       clipPathUnits="userSpaceOnUse"
       id="clipPath16"><path
         d="m 0,104.264 440.652,0 L 440.652,0 0,0 0,104.264 Z"
         id="path18"
         inkscape:connector-curvature="0" /></clipPath></defs><sodipodi:namedview
     pagecolor="#ffffff"
     bordercolor="#666666"
     borderopacity="1"
     objecttolerance="10"
     gridtolerance="10"
     guidetolerance="10"
     inkscape:pageopacity="0"
     inkscape:pageshadow="2"
     inkscape:window-width="1871"
     inkscape:window-height="1056"
     id="namedview4"
     showgrid="false"
     inkscape:zoom="0.6263446"
     inkscape:cx="275.4075"
     inkscape:cy="65.165001"
     inkscape:window-x="49"
     inkscape:window-y="24"
     inkscape:window-maximized="1"
     inkscape:current-layer="g10" /><g
     id="g10"
     inkscape:groupmode="layer"
     inkscape:label="monitor-logo"
     transform="matrix(1.25,0,0,-1.25,0,82.949998)"><g
       id="g12"
       transform="translate(-28.7389,-19.766701)"><g
         id="g14"
         clip-path="url(#clipPath16)"><g
           id="g20"
           transform="translate(138.9823,44.6396)"><path
             d="m 0,0 c 0,-1.474 -0.327,-2.868 -0.899,-4.128 l 12.82,-7.442 C 13.748,-8.116 14.787,-4.18 14.787,0 14.787,13.354 4.225,24.236 -9,24.762 L -9,9.949 C -3.947,9.448 0,5.185 0,0"
             style="fill:#444444;fill-opacity:1;fill-rule:nonzero;stroke:none"
             id="path22"
             inkscape:connector-curvature="0" /></g><g
           id="g24"
           transform="translate(127.9822,54.5891)"><path
             d="M 0,0 0,14.812 C -7.192,14.526 -13.593,11.178 -17.939,6.034 L -6.236,-3.06 C -4.63,-1.374 -2.448,-0.243 0,0"
             style="fill:#444444;fill-opacity:1;fill-rule:nonzero;stroke:none"
             id="path26"
             inkscape:connector-curvature="0" /></g><g
           id="g28"
           transform="translate(118.9823,44.6396)"><path
             d="m 0,0 c 0,1.953 0.569,3.77 1.537,5.31 l -11.703,9.093 c -2.906,-4.06 -4.621,-9.03 -4.621,-14.403 0,-6.439 2.456,-12.304 6.482,-16.711 L 2.227,-6.286 C 0.836,-4.568 0,-2.383 0,0"
             style="fill:#444444;fill-opacity:1;fill-rule:nonzero;stroke:none"
             id="path30"
             inkscape:connector-curvature="0" /></g><g
           id="g32"
           transform="translate(128.9823,34.6396)"><path
             d="M 0,0 C -2.42,0 -4.638,0.86 -6.368,2.29 L -16.895,-8.13 c 4.428,-4.128 10.364,-6.657 16.895,-6.657 8.795,0 16.513,4.584 20.913,11.489 L 8.094,4.144 C 6.277,1.637 3.333,0 0,0"
             style="fill:#444444;fill-opacity:1;fill-rule:nonzero;stroke:none"
             id="path34"
             inkscape:connector-curvature="0" /></g><g
           id="g36"
           transform="translate(149.9149,31.3305)"><path
             d="M 0,0 0.253,0.436 C 0.166,0.292 0.071,0.153 -0.019,0.011 L 0,0 Z"
             style="fill:#444444;fill-opacity:1;fill-rule:nonzero;stroke:none"
             id="path38"
             inkscape:connector-curvature="0" /></g><g
           id="g40"
           transform="translate(41.8979,68.456)"><path
             d="m 0,0 0,-7.331 0.189,0 c 2.443,5.639 7.049,8.271 13.252,8.271 6.298,0 10.246,-2.632 13.066,-8.271 2.443,5.639 7.989,8.271 13.911,8.271 4.23,0 8.835,-1.504 11.655,-4.888 3.196,-3.759 2.538,-9.211 2.538,-14.005 l 0,-29.796 -13.817,0 0,25.285 c 0,1.88 0.187,6.579 -0.282,8.365 -0.752,3.008 -3.008,3.853 -5.922,3.853 -2.443,0 -4.982,-1.409 -6.016,-3.665 -1.033,-2.256 -0.939,-6.016 -0.939,-8.553 l 0,-25.285 -13.818,0 0,25.285 c 0,4.981 0.94,12.313 -6.203,12.313 -7.238,0 -6.956,-7.144 -6.956,-12.313 l 0,-25.285 -13.817,0 0,47.749 L 0,0 Z"
             style="fill:#444444;fill-opacity:1;fill-rule:nonzero;stroke:none"
             id="path42"
             inkscape:connector-curvature="0" /></g><g
           id="g44"
           transform="translate(399.0191,68.456)"><path
             d="m 0,0 0,-8.929 0.188,0 c 1.41,5.075 4.23,10.339 10.246,9.869 l 2.349,-0.188 0,-13.817 C 2.256,-12.501 0.94,-21.055 0.94,-29.514 l 0,-18.235 -13.817,0 0,47.749 L 0,0 Z"
             style="fill:#444444;fill-opacity:1;fill-rule:nonzero;stroke:none"
             id="path46"
             inkscape:connector-curvature="0" /></g><g
           id="g48"
           transform="translate(161.9894,68.456)"><path
             d="m 0,0 13.065,0 0,-8.083 0.188,0 c 2.82,6.109 6.768,9.023 13.723,9.023 4.512,0 8.93,-1.41 11.749,-5.264 2.632,-3.571 2.632,-9.587 2.632,-13.911 l 0,-29.514 -13.817,0 0,25.661 c 0,4.887 0.658,12.031 -6.297,12.031 -2.444,0 -4.7,-1.41 -5.828,-3.572 -1.41,-2.726 -1.598,-5.451 -1.598,-8.459 l 0,-25.661 L 0,-47.749 0,0 Z"
             style="fill:#444444;fill-opacity:1;fill-rule:nonzero;stroke:none"
             id="path50"
             inkscape:connector-curvature="0" /></g><path
           d="m 227.036,20.707 -13.817,0 0,47.749 13.817,0 0,-47.749 z m 0,52.073 -13.817,0 0,13.347 13.817,0 0,-13.347 z"
           style="fill:#444444;fill-opacity:1;fill-rule:nonzero;stroke:none"
           id="path52"
           inkscape:connector-curvature="0" /><g
           id="g54"
           transform="translate(265.2224,57.5527)"><path
             d="m 0,0 -10.246,0 0,-18.987 c 0,-6.298 0.471,-7.707 6.392,-7.707 1.222,0 3.008,0.188 4.606,0.376 l 0,-10.434 c -2.726,-0.658 -6.11,-1.034 -8.648,-1.034 -3.947,0 -9.211,0.564 -12.313,3.102 -3.854,3.196 -3.854,8.93 -3.854,13.629 l 0,21.055 -7.801,0 0,10.998 8.365,0 1.222,14.004 12.031,0.94 0,-14.944 L 0,10.998 0,0 Z"
             style="fill:#444444;fill-opacity:1;fill-rule:nonzero;stroke:none"
             id="path56"
             inkscape:connector-curvature="0" /></g><g
           id="g58"
           transform="translate(306.9018,45.6396)"><path
             d="M 0,0 14.812,0 C 14.3,12.893 3.944,23.249 -8.949,23.762 l 0,-14.813 C -4.225,8.48 -0.469,4.724 0,0"
             style="fill:#444444;fill-opacity:1;fill-rule:nonzero;stroke:none"
             id="path60"
             inkscape:connector-curvature="0" /></g><g
           id="g62"
           transform="translate(286.9523,44.6396)"><path
             d="M 0,0 C 0,5.185 3.947,9.448 9,9.949 L 9,24.762 C -4.225,24.236 -14.787,13.354 -14.787,0 c 0,-2.816 0.476,-5.52 1.342,-8.043 L 0.372,-2.671 C 0.136,-1.819 0,-0.926 0,0"
             style="fill:#444444;fill-opacity:1;fill-rule:nonzero;stroke:none"
             id="path64"
             inkscape:connector-curvature="0" /></g><g
           id="g66"
           transform="translate(288.0478,40.1044)"><path
             d="m 0,0 -13.817,-5.372 c 2.368,-5.424 6.618,-9.838 11.928,-12.411 L 4.022,-4.187 C 2.301,-3.222 0.899,-1.762 0,0"
             style="fill:#444444;fill-opacity:1;fill-rule:nonzero;stroke:none"
             id="path68"
             inkscape:connector-curvature="0" /></g><g
           id="g70"
           transform="translate(296.9523,34.6396)"><path
             d="m 0,0 c -1.064,0 -2.088,0.169 -3.049,0.477 l -5.909,-13.589 c 2.78,-1.077 5.798,-1.675 8.958,-1.675 3.633,0 7.079,0.788 10.188,2.192 L 3.554,0.662 C 2.449,0.241 1.254,0 0,0"
             style="fill:#444444;fill-opacity:1;fill-rule:nonzero;stroke:none"
             id="path72"
             inkscape:connector-curvature="0" /></g><g
           id="g74"
           transform="translate(321.7393,44.6396)"><path
             d="m 0,0 c 0,0.002 0,0.003 0,0.005 l 0,-0.01 C 0,-0.003 0,-0.002 0,0"
             style="fill:#444444;fill-opacity:1;fill-rule:nonzero;stroke:none"
             id="path76"
             inkscape:connector-curvature="0" /></g><g
           id="g78"
           transform="translate(302.2955,36.1968)"><path
             d="m 0,0 6.634,-13.259 c 7.363,4.072 12.43,11.78 12.784,20.702 l -14.812,0 C 4.295,4.307 2.53,1.605 0,0"
             style="fill:#444444;fill-opacity:1;fill-rule:nonzero;stroke:none"
             id="path80"
             inkscape:connector-curvature="0" /></g><g
           id="g82"
           transform="translate(321.7392,44.6347)"><path
             d="M 0,0 C 0,-0.334 -0.012,-0.665 -0.025,-0.995 L 0,-0.995 0,0 Z"
             style="fill:#444444;fill-opacity:1;fill-rule:nonzero;stroke:none"
             id="path84"
             inkscape:connector-curvature="0" /></g><g
           id="g86"
           transform="translate(307.1493,22.0263)"><path
             d="M 0,0 0.464,0.232 C 0.308,0.158 0.149,0.089 -0.009,0.018 L 0,0 Z"
             style="fill:#444444;fill-opacity:1;fill-rule:nonzero;stroke:none"
             id="path88"
             inkscape:connector-curvature="0" /></g><g
           id="g90"
           transform="translate(342.9709,44.6396)"><path
             d="m 0,0 c 0,0.799 0.104,1.572 0.281,2.316 l -14.008,4.865 c -0.687,-2.274 -1.06,-4.683 -1.06,-7.181 0,-2.115 0.266,-4.168 0.765,-6.128 L 0.184,-1.887 C 0.067,-1.275 0,-0.646 0,0"
             style="fill:#444444;fill-opacity:1;fill-rule:nonzero;stroke:none"
             id="path92"
             inkscape:connector-curvature="0" /></g><g
           id="g94"
           transform="translate(352.9709,34.6396)"><path
             d="M 0,0 C -4.175,0 -7.749,2.561 -9.246,6.196 L -23.445,1.957 c 3.341,-9.74 12.572,-16.744 23.445,-16.744 0.622,0 1.237,0.031 1.848,0.076 L 0.148,0.007 C 0.098,0.007 0.05,0 0,0"
             style="fill:#444444;fill-opacity:1;fill-rule:nonzero;stroke:none"
             id="path96"
             inkscape:connector-curvature="0" /></g><g
           id="g98"
           transform="translate(351.9711,54.5891)"><path
             d="M 0,0 0,14.812 C -10.054,14.413 -18.562,8.027 -22.068,-0.88 L -8.063,-5.743 C -6.607,-2.612 -3.587,-0.356 0,0"
             style="fill:#444444;fill-opacity:1;fill-rule:nonzero;stroke:none"
             id="path100"
             inkscape:connector-curvature="0" /></g><g
           id="g102"
           transform="translate(362.9709,44.6396)"><path
             d="M 0,0 C 0,-0.927 -0.136,-1.82 -0.372,-2.671 L 13.445,-8.044 C 14.31,-5.521 14.787,-2.817 14.787,0 14.787,13.354 4.225,24.236 -9,24.762 L -9,9.949 C -3.947,9.447 0,5.185 0,0"
             style="fill:#444444;fill-opacity:1;fill-rule:nonzero;stroke:none"
             id="path104"
             inkscape:connector-curvature="0" /></g><g
           id="g106"
           transform="translate(355.1055,34.8734)"><path
             d="m 0,0 1.701,-14.725 c 8.491,1.32 15.552,6.95 18.886,14.582 L 6.77,5.231 C 5.427,2.601 2.962,0.645 0,0"
             style="fill:#444444;fill-opacity:1;fill-rule:nonzero;stroke:none"
             id="path108"
             inkscape:connector-curvature="0" /></g><g
           id="g110"
           transform="translate(329.8837,53.7158)"><path
             d="m 0,0 -0.167,-0.481 c 0.059,0.159 0.125,0.316 0.187,0.474 L 0,0 Z"
             style="fill:#444444;fill-opacity:1;fill-rule:nonzero;stroke:none"
             id="path112"
             inkscape:connector-curvature="0" /></g></g></g></g></svg>