<?xml version="1.0" encoding="UTF-8" standalone="no"?>
<!-- Generator: Adobe Illustrator 19.0.0, SVG Export Plug-In . SVG Version: 6.00 Build 0)  -->

<svg
   xmlns:ns="&amp;ns_sfw;"
   xmlns:dc="http://purl.org/dc/elements/1.1/"
   xmlns:cc="http://creativecommons.org/ns#"
   xmlns:rdf="http://www.w3.org/1999/02/22-rdf-syntax-ns#"
   xmlns:svg="http://www.w3.org/2000/svg"
   xmlns="http://www.w3.org/2000/svg"
   xmlns:sodipodi="http://sodipodi.sourceforge.net/DTD/sodipodi-0.dtd"
   xmlns:inkscape="http://www.inkscape.org/namespaces/inkscape"
   version="1.1"
   id="Layer_1"
   x="0px"
   y="0px"
   viewBox="-238 377 135 40"
   style="enable-background:new -238 377 135 40;"
   xml:space="preserve"
   inkscape:version="0.91 r13725"
   sodipodi:docname="Android-app-on-google-play.svg"><defs
     id="defs84" /><sodipodi:namedview
     pagecolor="#ffffff"
     bordercolor="#666666"
     borderopacity="1"
     objecttolerance="10"
     gridtolerance="10"
     guidetolerance="10"
     inkscape:pageopacity="0"
     inkscape:pageshadow="2"
     inkscape:window-width="640"
     inkscape:window-height="480"
     id="namedview82"
     showgrid="false"
     inkscape:zoom="2.0296296"
     inkscape:cx="67.5"
     inkscape:cy="20"
     inkscape:window-x="0"
     inkscape:window-y="0"
     inkscape:window-maximized="0"
     inkscape:current-layer="Layer_1" /><style
     type="text/css"
     id="style3">
	.st0{fill:#FFFFFF;}
	.st1{fill:#A6A6A6;}
	.st2{fill:url(#SVGID_1_);}
</style><metadata
     id="metadata5"><ns:sfw><ns:slices /><ns:sliceSourceBounds
         width="134.9"
         height="40"
         bottomLeftOrigin="true"
         x="0"
         y="0" /></ns:sfw><rdf:RDF><cc:Work
         rdf:about=""><dc:format>image/svg+xml</dc:format><dc:type
           rdf:resource="http://purl.org/dc/dcmitype/StillImage" /><dc:title></dc:title></cc:Work></rdf:RDF></metadata><g
     id="g7"><path
       class="st0"
       d="M-104,412.3c0,2.1-1.7,3.8-3.8,3.8h-125.5c-2.1,0-3.8-1.7-3.8-3.8v-30.5c0-2.1,1.7-3.8,3.8-3.8h125.5   c2.1,0,3.8,1.7,3.8,3.8L-104,412.3L-104,412.3z"
       id="path9" /><path
       class="st1"
       d="M-107.8,417h-125.5c-2.6,0-4.7-2.1-4.7-4.7v-30.5c0-2.6,2.1-4.7,4.7-4.7h125.5c2.6,0,4.7,2.1,4.7,4.7v30.5   C-103.1,414.9-105.2,417-107.8,417L-107.8,417z"
       id="path11" /><path
       d="M-104,412.3c0,2.1-1.7,3.8-3.8,3.8h-125.5c-2.1,0-3.8-1.7-3.8-3.8v-30.5c0-2.1,1.7-3.8,3.8-3.8h125.5   c2.1,0,3.8,1.7,3.8,3.8L-104,412.3L-104,412.3z"
       id="path13" /><path
       class="st0"
       d="M-207.9,396.8c0-3.2,2.6-4.8,2.8-4.9c-1.5-2.2-3.9-2.5-4.7-2.5c-2-0.2-3.9,1.2-4.9,1.2c-1,0-2.6-1.2-4.2-1.1   c-2.1,0-4.1,1.3-5.2,3.2c-2.3,3.9-0.6,9.7,1.6,12.9c1.1,1.6,2.4,3.3,4,3.2c1.6-0.1,2.2-1,4.2-1c1.9,0,2.5,1,4.2,1   c1.7,0,2.8-1.6,3.9-3.1c1.3-1.8,1.8-3.5,1.8-3.6C-204.5,401.9-207.8,400.6-207.9,396.8z"
       id="path15" /><path
       class="st0"
       d="M-211.1,387.3c0.9-1.1,1.5-2.6,1.3-4.1c-1.3,0.1-2.8,0.9-3.8,1.9c-0.8,0.9-1.5,2.5-1.3,3.9   C-213.4,389.2-212,388.4-211.1,387.3z"
       id="path17" /><linearGradient
       id="SVGID_1_"
       gradientUnits="userSpaceOnUse"
       x1="-139.04"
       y1="1168.0972"
       x2="-139.04"
       y2="1132.0513"
       gradientTransform="matrix(1 0 0 1 0 -751)"><stop
         offset="0"
         style="stop-color:#1A1A1A;stop-opacity:0.1"
         id="stop20" /><stop
         offset="0.1235"
         style="stop-color:#212121;stop-opacity:0.1506"
         id="stop22" /><stop
         offset="0.3085"
         style="stop-color:#353535;stop-opacity:0.2265"
         id="stop24" /><stop
         offset="0.5321"
         style="stop-color:#575757;stop-opacity:0.3181"
         id="stop26" /><stop
         offset="0.7834"
         style="stop-color:#858585;stop-opacity:0.4212"
         id="stop28" /><stop
         offset="1"
         style="stop-color:#B3B3B3;stop-opacity:0.51"
         id="stop30" /></linearGradient><path
       class="st2"
       d="M-107.8,377H-175l26.3,40h40.9c2.6,0,4.7-2.1,4.7-4.7v-30.5C-103.1,379.1-105.2,377-107.8,377z"
       id="path32" /><g
       id="g34"><path
         class="st0"
         d="M-184.3,408.5h-2.3l-1.2-3.9h-4.3l-1.2,3.9h-2.2l4.3-13.3h2.6L-184.3,408.5z M-188.2,403l-1.1-3.5    c-0.1-0.4-0.3-1.2-0.7-2.5h0c-0.1,0.6-0.3,1.4-0.6,2.5l-1.1,3.5H-188.2z"
         id="path36" /><path
         class="st0"
         d="M-173.3,403.6c0,1.6-0.4,2.9-1.3,3.9c-0.8,0.8-1.8,1.3-3,1.3c-1.3,0-2.2-0.5-2.7-1.4v5h-2.1v-10.3    c0-1,0-2.1-0.1-3.2h1.9l0.1,1.5h0c0.7-1.1,1.8-1.7,3.2-1.7c1.1,0,2.1,0.4,2.8,1.3C-173.7,400.9-173.3,402.1-173.3,403.6z     M-175.5,403.7c0-0.9-0.2-1.7-0.6-2.3c-0.5-0.6-1.1-0.9-1.9-0.9c-0.5,0-1,0.2-1.4,0.5c-0.4,0.4-0.7,0.8-0.8,1.4    c-0.1,0.3-0.1,0.5-0.1,0.6v1.6c0,0.7,0.2,1.3,0.6,1.8c0.4,0.5,1,0.7,1.7,0.7c0.8,0,1.4-0.3,1.9-0.9    C-175.7,405.5-175.5,404.7-175.5,403.7z"
         id="path38" /><path
         class="st0"
         d="M-162.3,403.6c0,1.6-0.4,2.9-1.3,3.9c-0.8,0.8-1.8,1.3-3,1.3c-1.3,0-2.2-0.5-2.7-1.4v5h-2.1v-10.3    c0-1,0-2.1-0.1-3.2h1.9l0.1,1.5h0c0.7-1.1,1.8-1.7,3.2-1.7c1.1,0,2.1,0.4,2.8,1.3C-162.7,400.9-162.3,402.1-162.3,403.6z     M-164.5,403.7c0-0.9-0.2-1.7-0.6-2.3c-0.5-0.6-1.1-0.9-1.9-0.9c-0.5,0-1,0.2-1.4,0.5c-0.4,0.4-0.7,0.8-0.8,1.4    c-0.1,0.3-0.1,0.5-0.1,0.6v1.6c0,0.7,0.2,1.3,0.6,1.8c0.4,0.5,1,0.7,1.7,0.7c0.8,0,1.4-0.3,1.9-0.9    C-164.7,405.5-164.5,404.7-164.5,403.7z"
         id="path40" /><path
         class="st0"
         d="M-150,404.8c0,1.1-0.4,2.1-1.2,2.8c-0.9,0.8-2.1,1.2-3.6,1.2c-1.4,0-2.6-0.3-3.4-0.8l0.5-1.8    c0.9,0.6,2,0.8,3.1,0.8c0.8,0,1.4-0.2,1.9-0.5c0.4-0.4,0.7-0.8,0.7-1.4c0-0.5-0.2-1-0.6-1.4c-0.4-0.4-1-0.7-1.8-1    c-2.3-0.9-3.5-2.1-3.5-3.8c0-1.1,0.4-2,1.2-2.7c0.8-0.7,1.9-1,3.3-1c1.2,0,2.2,0.2,3,0.6l-0.5,1.7c-0.8-0.4-1.6-0.6-2.6-0.6    c-0.8,0-1.3,0.2-1.8,0.6c-0.4,0.3-0.5,0.7-0.5,1.2c0,0.5,0.2,1,0.6,1.3c0.4,0.3,1,0.7,1.9,1c1.1,0.5,2,1,2.5,1.6    C-150.2,403.1-150,403.9-150,404.8z"
         id="path42" /><path
         class="st0"
         d="M-142.9,400.5h-2.3v4.7c0,1.2,0.4,1.8,1.2,1.8c0.4,0,0.7,0,0.9-0.1l0.1,1.6c-0.4,0.2-1,0.2-1.7,0.2    c-0.8,0-1.5-0.3-2-0.8c-0.5-0.5-0.7-1.4-0.7-2.6v-4.8h-1.4v-1.6h1.4v-1.8l2.1-0.6v2.4h2.3C-142.9,398.9-142.9,400.5-142.9,400.5z"
         id="path44" /><path
         class="st0"
         d="M-132.3,403.6c0,1.5-0.4,2.7-1.3,3.6c-0.9,1-2.1,1.5-3.5,1.5c-1.4,0-2.5-0.5-3.4-1.4    c-0.8-0.9-1.3-2.1-1.3-3.5c0-1.5,0.4-2.7,1.3-3.7c0.9-0.9,2-1.4,3.5-1.4c1.4,0,2.5,0.5,3.4,1.4    C-132.7,401-132.3,402.2-132.3,403.6z M-134.5,403.7c0-0.9-0.2-1.6-0.6-2.3c-0.4-0.8-1.1-1.1-1.9-1.1c-0.9,0-1.5,0.4-2,1.1    c-0.4,0.6-0.6,1.4-0.6,2.3c0,0.9,0.2,1.6,0.6,2.3c0.5,0.8,1.1,1.1,1.9,1.1c0.8,0,1.5-0.4,1.9-1.2    C-134.7,405.3-134.5,404.6-134.5,403.7z"
         id="path46" /><path
         class="st0"
         d="M-125.4,400.8c-0.2,0-0.4-0.1-0.7-0.1c-0.8,0-1.3,0.3-1.7,0.9c-0.4,0.5-0.5,1.1-0.5,1.9v5h-2.1v-6.6    c0-1.1,0-2.1-0.1-3h1.9l0.1,1.8h0.1c0.2-0.6,0.6-1.1,1.1-1.5c0.5-0.3,1-0.5,1.5-0.5c0.2,0,0.4,0,0.5,0L-125.4,400.8L-125.4,400.8z    "
         id="path48" /><path
         class="st0"
         d="M-115.8,403.3c0,0.4,0,0.7-0.1,1h-6.4c0,0.9,0.3,1.7,0.9,2.2c0.5,0.4,1.2,0.7,2.1,0.7c0.9,0,1.8-0.1,2.6-0.5    l0.3,1.5c-0.9,0.4-2,0.6-3.2,0.6c-1.5,0-2.7-0.4-3.5-1.3c-0.8-0.9-1.3-2.1-1.3-3.5c0-1.4,0.4-2.7,1.2-3.6c0.8-1,1.9-1.5,3.4-1.5    c1.4,0,2.4,0.5,3.1,1.5C-116.1,401-115.8,402.1-115.8,403.3z M-117.9,402.7c0-0.6-0.1-1.2-0.4-1.6c-0.4-0.6-0.9-0.9-1.7-0.9    c-0.7,0-1.3,0.3-1.7,0.9c-0.4,0.5-0.6,1-0.6,1.7L-117.9,402.7L-117.9,402.7z"
         id="path50" /></g><g
       id="g52"><path
         class="st0"
         d="M-189.3,390.4h-1.1l-0.6-1.9h-2.1l-0.6,1.9h-1.1l2.1-6.5h1.3L-189.3,390.4z M-191.2,387.7l-0.6-1.7    c-0.1-0.2-0.2-0.6-0.3-1.2h0c-0.1,0.3-0.2,0.7-0.3,1.2l-0.5,1.7H-191.2z"
         id="path54" /><path
         class="st0"
         d="M-184,385.7l-1.8,4.7h-1l-1.7-4.7h1.1l0.8,2.5c0.1,0.4,0.3,0.8,0.3,1.2h0c0.1-0.3,0.2-0.7,0.3-1.2l0.8-2.5    C-185.1,385.7-184,385.7-184,385.7z"
         id="path56" /><path
         class="st0"
         d="M-180.2,390.4l-0.1-0.5h0c-0.3,0.4-0.8,0.6-1.4,0.6c-0.8,0-1.4-0.6-1.4-1.4c0-1.2,1-1.8,2.8-1.8v-0.1    c0-0.6-0.3-0.9-1-0.9c-0.5,0-0.9,0.1-1.2,0.4l-0.2-0.7c0.4-0.3,1-0.4,1.6-0.4c1.2,0,1.9,0.6,1.9,2v1.7c0,0.5,0,0.8,0.1,1.1    L-180.2,390.4L-180.2,390.4z M-180.3,388.1c-1.2,0-1.7,0.3-1.7,1c0,0.5,0.3,0.7,0.7,0.7c0.5,0,1-0.4,1-1    C-180.3,388.8-180.3,388.1-180.3,388.1z"
         id="path58" /><path
         class="st0"
         d="M-177,384.9c-0.3,0-0.6-0.3-0.6-0.6c0-0.4,0.3-0.6,0.6-0.6c0.4,0,0.6,0.3,0.6,0.6    C-176.3,384.7-176.6,384.9-177,384.9z M-176.4,390.4h-1v-4.7h1V390.4z"
         id="path60" /><path
         class="st0"
         d="M-173.5,390.4h-1v-6.9h1V390.4z"
         id="path62" /><path
         class="st0"
         d="M-169.1,390.4l-0.1-0.5h0c-0.3,0.4-0.8,0.6-1.4,0.6c-0.8,0-1.4-0.6-1.4-1.4c0-1.2,1-1.8,2.8-1.8v-0.1    c0-0.6-0.3-0.9-1-0.9c-0.5,0-0.9,0.1-1.2,0.4l-0.2-0.7c0.4-0.3,1-0.4,1.6-0.4c1.2,0,1.9,0.7,1.9,2v1.7c0,0.5,0,0.8,0.1,1.1H-169.1    z M-169.2,388.1c-1.2,0-1.7,0.3-1.7,1c0,0.5,0.3,0.7,0.7,0.7c0.5,0,1-0.4,1-1V388.1z"
         id="path64" /><path
         class="st0"
         d="M-163.9,390.5c-0.7,0-1.2-0.3-1.5-0.8h0l-0.1,0.7h-0.9c0-0.4,0-0.8,0-1.3v-5.6h1v2.9h0    c0.3-0.5,0.8-0.8,1.5-0.8c1.1,0,1.9,1,1.9,2.4C-161.9,389.5-162.7,390.5-163.9,390.5z M-164.2,386.4c-0.6,0-1.2,0.5-1.2,1.3v0.8    c0,0.6,0.5,1.2,1.1,1.2c0.8,0,1.3-0.6,1.3-1.7C-162.9,387.1-163.4,386.4-164.2,386.4z"
         id="path66" /><path
         class="st0"
         d="M-159.3,390.4h-1v-6.9h1V390.4z"
         id="path68" /><path
         class="st0"
         d="M-153.6,388.3h-3.1c0,0.9,0.6,1.4,1.5,1.4c0.5,0,0.9-0.1,1.3-0.2l0.2,0.7c-0.4,0.2-1,0.3-1.6,0.3    c-1.5,0-2.3-0.9-2.3-2.4c0-1.4,0.9-2.5,2.2-2.5c1.2,0,2,0.9,2,2.2C-153.5,388-153.5,388.2-153.6,388.3z M-154.5,387.6    c0-0.7-0.4-1.2-1-1.2c-0.6,0-1.1,0.5-1.1,1.2H-154.5z"
         id="path70" /><path
         class="st0"
         d="M-147.2,390.5c-1.4,0-2.3-1-2.3-2.4c0-1.5,0.9-2.5,2.4-2.5c1.4,0,2.3,1,2.3,2.4    C-144.9,389.5-145.8,390.5-147.2,390.5z M-147.2,386.4c-0.8,0-1.2,0.7-1.2,1.7c0,1,0.5,1.7,1.2,1.7s1.2-0.8,1.2-1.7    C-145.9,387.1-146.4,386.4-147.2,386.4z"
         id="path72" /><path
         class="st0"
         d="M-139.2,390.4h-1v-2.7c0-0.8-0.3-1.3-1-1.3c-0.6,0-1,0.5-1,1.2v2.8h-1v-3.4c0-0.4,0-0.9,0-1.3h0.9l0,0.7h0    c0.3-0.5,0.9-0.8,1.5-0.8c1,0,1.6,0.8,1.6,2V390.4L-139.2,390.4z"
         id="path74" /><path
         class="st0"
         d="M-132.4,386.5h-1.2v2.3c0,0.6,0.2,0.9,0.6,0.9c0.2,0,0.3,0,0.5,0l0,0.8c-0.2,0.1-0.5,0.1-0.8,0.1    c-0.8,0-1.3-0.5-1.3-1.6v-2.4h-0.7v-0.8h0.7v-0.9l1-0.3v1.2h1.2V386.5z"
         id="path76" /><path
         class="st0"
         d="M-126.8,390.4h-1v-2.7c0-0.8-0.3-1.3-1-1.3c-0.5,0-1,0.4-1,1.1v2.8h-1v-6.9h1v2.8h0c0.3-0.5,0.8-0.8,1.4-0.8    c1,0,1.6,0.8,1.6,2V390.4z"
         id="path78" /><path
         class="st0"
         d="M-121.5,388.3h-3.1c0,0.9,0.6,1.4,1.5,1.4c0.5,0,0.9-0.1,1.3-0.2l0.2,0.7c-0.4,0.2-1,0.3-1.6,0.3    c-1.5,0-2.3-0.9-2.3-2.4c0-1.4,0.9-2.5,2.2-2.5c1.2,0,2,0.9,2,2.2C-121.4,388-121.4,388.2-121.5,388.3z M-122.4,387.6    c0-0.7-0.4-1.2-1-1.2c-0.6,0-1.1,0.5-1.1,1.2H-122.4z"
         id="path80" /></g></g></svg>