<?xml version="1.0" encoding="UTF-8" standalone="no"?>
<!-- Generator: Adobe Illustrator 19.0.0, SVG Export Plug-In . SVG Version: 6.00 Build 0)  -->

<svg
   xmlns:ns="&amp;ns_sfw;"
   xmlns:dc="http://purl.org/dc/elements/1.1/"
   xmlns:cc="http://creativecommons.org/ns#"
   xmlns:rdf="http://www.w3.org/1999/02/22-rdf-syntax-ns#"
   xmlns:svg="http://www.w3.org/2000/svg"
   xmlns="http://www.w3.org/2000/svg"
   xmlns:xlink="http://www.w3.org/1999/xlink"
   xmlns:sodipodi="http://sodipodi.sourceforge.net/DTD/sodipodi-0.dtd"
   xmlns:inkscape="http://www.inkscape.org/namespaces/inkscape"
   version="1.1"
   id="Layer_1"
   x="0px"
   y="0px"
   viewBox="-231.6 377 122.2 40"
   style="enable-background:new -231.6 377 122.2 40;"
   xml:space="preserve"
   inkscape:version="0.91 r13725"
   sodipodi:docname="Available_on_the_App_Store.svg"><defs
     id="defs220" /><sodipodi:namedview
     pagecolor="#ffffff"
     bordercolor="#666666"
     borderopacity="1"
     objecttolerance="10"
     gridtolerance="10"
     guidetolerance="10"
     inkscape:pageopacity="0"
     inkscape:pageshadow="2"
     inkscape:window-width="640"
     inkscape:window-height="480"
     id="namedview218"
     showgrid="false"
     inkscape:zoom="2.2422259"
     inkscape:cx="61.099998"
     inkscape:cy="20"
     inkscape:window-x="0"
     inkscape:window-y="0"
     inkscape:window-maximized="0"
     inkscape:current-layer="Layer_1" /><style
     type="text/css"
     id="style87">
	.st0{clip-path:url(#SVGID_1_);fill:url(#SVGID_2_);}
	.st1{clip-path:url(#SVGID_3_);fill:url(#SVGID_4_);}
	.st2{clip-path:url(#SVGID_5_);fill:url(#SVGID_6_);}
	.st3{clip-path:url(#SVGID_7_);fill:url(#SVGID_8_);}
	.st4{fill:#F9F9F9;}
	.st5{fill:#F9F9FA;}
</style><metadata
     id="metadata89"><ns:sfw><ns:slices /><ns:sliceSourceBounds
         width="122.2"
         height="40"
         bottomLeftOrigin="true"
         x="6.4"
         y="0" /></ns:sfw><rdf:RDF><cc:Work
         rdf:about=""><dc:format>image/svg+xml</dc:format><dc:type
           rdf:resource="http://purl.org/dc/dcmitype/StillImage" /><dc:title></dc:title></cc:Work></rdf:RDF></metadata><g
     id="g91"><path
       d="M-109.4,411.6c0,3-2.4,5.4-5.4,5.4h-111.4c-3,0-5.4-2.4-5.4-5.4v-29.2c0-3,2.4-5.4,5.4-5.4h111.4c3,0,5.4,2.4,5.4,5.4   L-109.4,411.6L-109.4,411.6z"
       id="path93" /><g
       id="PLAY_2_"><g
         id="g96"><defs
           id="defs98"><path
             id="SVGID_13_"
             d="M-205.1,394.6l-5.5-3.2c0,0-10-5.8-10.6-6.1c-0.6-0.3-1.2-0.1-1.2,0.6c0,1.2,0,12.4,0,12.4      s0,12.1,0,12.6c0,0.5,0.4,0.8,0.9,0.5c0.5-0.3,10.9-6.3,10.9-6.3l5.5-3.2c0,0,4.7-2.7,5.3-3.1c0.6-0.4,0.6-0.9,0-1.1      C-200.3,397.4-205.1,394.6-205.1,394.6z" /></defs><clipPath
           id="SVGID_1_"><use
             xlink:href="#SVGID_13_"
             style="overflow:visible;"
             id="use102" /></clipPath><linearGradient
           id="SVGID_2_"
           gradientUnits="userSpaceOnUse"
           x1="-454.5406"
           y1="762.1763"
           x2="-454.5406"
           y2="759.9196"
           gradientTransform="matrix(12 0 0 -12 5238.8599 9530.8145)"><stop
             offset="0"
             style="stop-color:#257CB0"
             id="stop105" /><stop
             offset="0.2863"
             style="stop-color:#4A93B5"
             id="stop107" /><stop
             offset="0.767"
             style="stop-color:#78BCBB"
             id="stop109" /><stop
             offset="1"
             style="stop-color:#89CFBD"
             id="stop111" /></linearGradient><polygon
           class="st0"
           points="-222.5,384.7 -222.5,398.2 -222.5,411.8 -208.8,398.2    "
           id="polygon113"
           clip-path="url(#SVGID_1_)" /></g><g
         id="g115"><defs
           id="defs117"><path
             id="SVGID_16_"
             d="M-205.1,394.6l-5.5-3.2c0,0-10-5.8-10.6-6.1c-0.6-0.3-1.2-0.1-1.2,0.6c0,1.2,0,12.4,0,12.4      s0,12.1,0,12.6c0,0.5,0.4,0.8,0.9,0.5c0.5-0.3,10.9-6.3,10.9-6.3l5.5-3.2c0,0,4.7-2.7,5.3-3.1c0.6-0.4,0.6-0.9,0-1.1      C-200.3,397.4-205.1,394.6-205.1,394.6z" /></defs><clipPath
           id="SVGID_3_"><use
             xlink:href="#SVGID_16_"
             style="overflow:visible;"
             id="use121" /></clipPath><linearGradient
           id="SVGID_4_"
           gradientUnits="userSpaceOnUse"
           x1="-455.1096"
           y1="761.6162"
           x2="-453.666"
           y2="761.6162"
           gradientTransform="matrix(12 0 0 -12 5238.8599 9530.8145)"><stop
             offset="0"
             style="stop-color:#52C1AD"
             id="stop124" /><stop
             offset="1"
             style="stop-color:#DEE89A"
             id="stop126" /></linearGradient><polygon
           class="st1"
           points="-205.1,394.6 -210.6,391.4 -222.5,384.6 -222.5,384.7 -208.8,398.2    "
           id="polygon128"
           clip-path="url(#SVGID_3_)" /></g><g
         id="g130"><defs
           id="defs132"><path
             id="SVGID_19_"
             d="M-205.1,394.6l-5.5-3.2c0,0-10-5.8-10.6-6.1c-0.6-0.3-1.2-0.1-1.2,0.6c0,1.2,0,12.4,0,12.4      s0,12.1,0,12.6c0,0.5,0.4,0.8,0.9,0.5c0.5-0.3,10.9-6.3,10.9-6.3l5.5-3.2c0,0,4.7-2.7,5.3-3.1c0.6-0.4,0.6-0.9,0-1.1      C-200.3,397.4-205.1,394.6-205.1,394.6z" /></defs><clipPath
           id="SVGID_5_"><use
             xlink:href="#SVGID_19_"
             style="overflow:visible;"
             id="use136" /></clipPath><linearGradient
           id="SVGID_6_"
           gradientUnits="userSpaceOnUse"
           x1="-454.3878"
           y1="761.0479"
           x2="-454.3878"
           y2="759.9114"
           gradientTransform="matrix(12 0 0 -12 5238.8599 9530.8145)"><stop
             offset="0"
             style="stop-color:#EC413D"
             id="stop139" /><stop
             offset="0.1668"
             style="stop-color:#DA4452"
             id="stop141" /><stop
             offset="0.5748"
             style="stop-color:#B0487A"
             id="stop143" /><stop
             offset="0.8619"
             style="stop-color:#954A92"
             id="stop145" /><stop
             offset="1"
             style="stop-color:#8A4A9D"
             id="stop147" /></linearGradient><polygon
           class="st2"
           points="-222.5,411.8 -222.5,411.9 -210.6,405.1 -205.1,401.9 -208.8,398.2    "
           id="polygon149"
           clip-path="url(#SVGID_5_)" /></g><g
         id="g151"><defs
           id="defs153"><path
             id="SVGID_22_"
             d="M-205.1,394.6l-5.5-3.2c0,0-10-5.8-10.6-6.1c-0.6-0.3-1.2-0.1-1.2,0.6c0,1.2,0,12.4,0,12.4      s0,12.1,0,12.6c0,0.5,0.4,0.8,0.9,0.5c0.5-0.3,10.9-6.3,10.9-6.3l5.5-3.2c0,0,4.7-2.7,5.3-3.1c0.6-0.4,0.6-0.9,0-1.1      C-200.3,397.4-205.1,394.6-205.1,394.6z" /></defs><clipPath
           id="SVGID_7_"><use
             xlink:href="#SVGID_22_"
             style="overflow:visible;"
             id="use157" /></clipPath><linearGradient
           id="SVGID_8_"
           gradientUnits="userSpaceOnUse"
           x1="-453.5563"
           y1="761.351"
           x2="-453.5563"
           y2="760.7449"
           gradientTransform="matrix(12 0 0 -12 5238.8599 9530.8145)"><stop
             offset="0"
             style="stop-color:#F58879"
             id="stop160" /><stop
             offset="0.1194"
             style="stop-color:#F69079"
             id="stop162" /><stop
             offset="0.7128"
             style="stop-color:#FCB877"
             id="stop164" /><stop
             offset="1"
             style="stop-color:#FEC874"
             id="stop166" /></linearGradient><polygon
           class="st3"
           points="-205.1,394.6 -208.8,398.2 -205.1,401.9 -198.8,398.2    "
           id="polygon168"
           clip-path="url(#SVGID_7_)" /></g></g><path
       class="st4"
       d="M-136.5,403.5c-0.5,0-1-0.1-1.4-0.3c-0.4-0.2-0.8-0.5-1.1-0.9h-0.1c0.1,0.5,0.1,0.9,0.1,1.3v3.2h-1.2v-11.4h1   l0.2,1.1h0.1c0.3-0.4,0.7-0.7,1.1-0.9s0.9-0.3,1.4-0.3c1,0,1.9,0.4,2.4,1.1c0.6,0.7,0.9,1.7,0.9,3c0,1.3-0.3,2.3-0.9,3   C-134.7,403.2-135.5,403.5-136.5,403.5z M-136.7,396.4c-0.8,0-1.4,0.2-1.7,0.7c-0.4,0.4-0.5,1.2-0.6,2.1v0.3c0,1.1,0.2,1.9,0.6,2.4   s1,0.7,1.8,0.7c0.7,0,1.2-0.3,1.6-0.8c0.4-0.6,0.6-1.3,0.6-2.3c0-1-0.2-1.7-0.6-2.3C-135.4,396.6-136,396.4-136.7,396.4z"
       id="path170" /><path
       class="st4"
       d="M-130.5,403.4h-1.2v-11.2h1.2V403.4z"
       id="path172" /><path
       class="st4"
       d="M-123.6,403.4l-0.2-1.1h-0.1c-0.4,0.5-0.8,0.8-1.2,1c-0.4,0.2-0.9,0.3-1.5,0.3c-0.8,0-1.4-0.2-1.8-0.6   c-0.4-0.4-0.7-1-0.7-1.7c0-1.6,1.3-2.4,3.8-2.5l1.3,0v-0.5c0-0.6-0.1-1.1-0.4-1.4c-0.3-0.3-0.7-0.4-1.3-0.4c-0.7,0-1.4,0.2-2.2,0.6   l-0.4-0.9c0.4-0.2,0.8-0.4,1.3-0.5c0.5-0.1,0.9-0.2,1.4-0.2c0.9,0,1.6,0.2,2.1,0.6c0.5,0.4,0.7,1.1,0.7,2v5.4L-123.6,403.4   L-123.6,403.4z M-126.3,402.5c0.7,0,1.3-0.2,1.7-0.6c0.4-0.4,0.6-1,0.6-1.7v-0.7l-1.2,0c-0.9,0-1.6,0.2-2.1,0.4   c-0.4,0.3-0.6,0.7-0.6,1.2c0,0.4,0.1,0.8,0.4,1C-127.1,402.4-126.8,402.5-126.3,402.5z"
       id="path174" /><path
       class="st4"
       d="M-122,395.5h1.3l1.7,4.5c0.4,1,0.6,1.8,0.7,2.2h0.1c0.1-0.2,0.2-0.7,0.4-1.3c0.2-0.6,0.8-2.4,2-5.5h1.3l-3.4,9   c-0.3,0.9-0.7,1.5-1.2,1.9c-0.4,0.4-1,0.6-1.6,0.6c-0.4,0-0.7,0-1.1-0.1v-1c0.3,0.1,0.6,0.1,0.9,0.1c0.8,0,1.4-0.5,1.8-1.4l0.4-1.1   L-122,395.5z"
       id="path176" /><path
       class="st4"
       d="M-158.6,396.2c0.4,0.3,1.2,1,1.2,2.2c0,1.2-0.7,1.8-1.4,2.3c-0.2,0.2-0.5,0.4-0.5,0.8c0,0.4,0.2,0.6,0.4,0.7   l0.6,0.5c0.7,0.6,1.4,1.2,1.4,2.3c0,1.5-1.5,3.1-4.3,3.1c-2.4,0-3.5-1.1-3.5-2.4c0-0.6,0.3-1.4,1.3-2c1-0.6,2.4-0.7,3.1-0.8   c-0.2-0.3-0.5-0.6-0.5-1.1c0-0.3,0.1-0.4,0.2-0.6c-0.2,0-0.4,0-0.5,0c-1.7,0-2.7-1.3-2.7-2.6c0-0.8,0.3-1.6,1.1-2.2   c0.9-0.8,2.1-0.9,2.9-0.9h3.4l-1.1,0.6L-158.6,396.2L-158.6,396.2z M-159.8,403.6c-0.1,0-0.2,0-0.4,0c-0.1,0-1,0-1.7,0.3   c-0.4,0.1-1.4,0.5-1.4,1.7c0,1.2,1.1,2,2.9,2c1.6,0,2.4-0.8,2.4-1.8C-158,404.9-158.5,404.4-159.8,403.6z M-159.3,400.4   c0.4-0.4,0.4-0.9,0.4-1.2c0-1.2-0.7-3-2.1-3c-0.4,0-0.9,0.2-1.2,0.5c-0.3,0.3-0.4,0.8-0.4,1.2c0,1.1,0.6,2.9,2.1,2.9   C-160,400.9-159.5,400.7-159.3,400.4z"
       id="path178" /><path
       class="st4"
       d="M-169,403.3c-2.6,0-4-2-4-3.9c0-2.2,1.8-4,4.3-4c2.4,0,3.9,1.9,3.9,3.9C-164.8,401.2-166.3,403.3-169,403.3z    M-166.9,402c0.4-0.5,0.5-1.2,0.5-1.8c0-1.4-0.7-4.2-2.7-4.2c-0.5,0-1.1,0.2-1.5,0.6c-0.6,0.6-0.8,1.3-0.8,2c0,1.6,0.8,4.3,2.8,4.3   C-167.9,402.8-167.3,402.5-166.9,402z"
       id="path180" /><path
       class="st4"
       d="M-177.9,403.3c-2.6,0-4-2-4-3.9c0-2.2,1.8-4,4.3-4c2.4,0,3.9,1.9,3.9,3.9   C-173.7,401.2-175.2,403.3-177.9,403.3z M-175.8,402c0.4-0.5,0.5-1.2,0.5-1.8c0-1.4-0.7-4.2-2.7-4.2c-0.5,0-1.1,0.2-1.5,0.6   c-0.6,0.6-0.8,1.3-0.8,2c0,1.6,0.8,4.3,2.8,4.3C-176.8,402.8-176.2,402.5-175.8,402z"
       id="path182" /><path
       class="st4"
       d="M-183.1,403l-2.4,0.5c-1,0.1-1.8,0.3-2.7,0.3c-4.6,0-6.3-3.4-6.3-6c0-3.2,2.5-6.2,6.7-6.2   c0.9,0,1.8,0.1,2.5,0.3c1.2,0.3,1.8,0.8,2.2,1l-1.4,1.3l-0.6,0.1l0.4-0.7c-0.6-0.5-1.6-1.6-3.5-1.6c-2.6,0-4.6,2-4.6,4.9   c0,3.1,2.2,6,5.9,6c1.1,0,1.6-0.2,2.1-0.4v-2.7l-2.5,0.1l1.3-0.7h3.5l-0.4,0.4c-0.1,0.1-0.1,0.1-0.2,0.3c0,0.1,0,0.6,0,0.8   L-183.1,403L-183.1,403z"
       id="path184" /><path
       class="st4"
       d="M-153.4,402.6c-0.5,0-0.7-0.1-0.7-0.8v-0.2v-9.2c0,0,0-0.1,0-0.1c0.1-0.6,0.2-0.7,0.7-1h-2.4l-1.2,0.6h1.3v0   l0,0v9.7v0.5c0,0.3-0.1,0.4-0.4,0.9h2.9l0.6-0.4C-152.8,402.6-153.1,402.6-153.4,402.6z"
       id="path186" /><path
       class="st4"
       d="M-146.6,402.7c-0.2,0.1-0.4,0.2-0.5,0.3c-0.5,0.2-1.1,0.3-1.6,0.3c-0.5,0-1.3,0-2.2-0.6   c-1.2-0.8-1.7-2.2-1.7-3.5c0-2.5,2.1-3.8,3.8-3.8c0.6,0,1.2,0.1,1.7,0.5c0.8,0.5,1,1.2,1.1,1.6l-3.9,1.6l-1.3,0.1   c0.4,2.1,1.8,3.3,3.4,3.3c0.8,0,1.4-0.3,2-0.6L-146.6,402.7z M-148.2,397.8c0.3-0.1,0.5-0.2,0.5-0.4c0-0.7-0.7-1.4-1.6-1.4   c-0.7,0-1.9,0.5-1.9,2.3c0,0.3,0,0.6,0,0.9L-148.2,397.8z"
       id="path188" /><path
       class="st4"
       d="M-145,395.5v1.1h-0.1v-1.1h-0.4v-0.1h0.8v0.1H-145z"
       id="path190" /><path
       class="st4"
       d="M-143.6,396.6v-1.1h0l-0.3,1.1h-0.1l-0.3-1.1h0v1.1h-0.1v-1.2h0.2l0.3,1h0l0.3-1h0.2v1.2H-143.6z"
       id="path192" /><path
       class="st5"
       d="M-191.2,388.5h-0.8c0-0.1-0.1-0.4-0.2-1h-1.2c-0.2,0.5-0.2,0.8-0.2,1h-0.8c0-0.1,0.2-0.6,0.6-1.6   c0.4-1,0.6-1.6,0.6-1.7h1c0,0.1,0.2,0.7,0.5,1.7C-191.4,387.8-191.2,388.4-191.2,388.5z M-192.4,387c-0.3-0.9-0.4-1.4-0.4-1.4h0   c0,0.1-0.2,0.5-0.5,1.4H-192.4z"
       id="path194" /><path
       class="st5"
       d="M-187.9,388.5h-0.6c0-0.1-0.2-0.4-0.7-1.1c-0.5-0.7-0.8-1.2-0.8-1.5h0c0,0.4,0.1,0.7,0.1,1c0,0.4,0,0.9,0,1.5   h-0.6c0-0.5,0-1.1,0-1.7c0-0.6,0-1.2,0-1.6h0.8c0,0.1,0.2,0.5,0.6,1.1c0.5,0.7,0.7,1.1,0.8,1.4h0c0-0.4-0.1-0.7-0.1-1   c0-0.5,0-0.9,0-1.4h0.6c0,0.4,0,1,0,1.6C-188,387.4-188,388-187.9,388.5z"
       id="path196" /><path
       class="st5"
       d="M-184.2,386.7c0,0.5-0.2,0.9-0.5,1.3c-0.3,0.4-0.7,0.5-1.3,0.5c-0.3,0-0.6,0-1,0c0-0.5,0-1.1,0-1.7   c0-0.6,0-1.2,0-1.6h0.4c0.1,0,0.2,0,0.3,0c0.1,0,0.2,0,0.3,0c0.6,0,1.1,0.2,1.3,0.5C-184.3,385.9-184.2,386.3-184.2,386.7z    M-184.9,386.8c0-0.3-0.1-0.6-0.3-0.8c-0.2-0.2-0.5-0.3-0.9-0.3c-0.1,0-0.2,0-0.3,0c0,0.3,0,0.7,0,1.1c0,0.4,0,0.8,0,1.2   c0.1,0,0.2,0,0.3,0c0.4,0,0.6-0.1,0.8-0.3C-185,387.4-184.9,387.1-184.9,386.8z"
       id="path198" /><path
       class="st5"
       d="M-180.8,388.5h-0.8c-0.2-0.6-0.4-1-0.5-1.1c-0.1-0.1-0.3-0.2-0.5-0.2c-0.1,0-0.2,0-0.3,0c0,0.4,0,0.9,0,1.3   h-0.7c0-0.5,0-1.1,0-1.7c0-0.6,0-1.2,0-1.6h0.4c0.1,0,0.2,0,0.3,0c0.2,0,0.3,0,0.5,0c0.8,0,1.2,0.3,1.2,0.8c0,0.4-0.2,0.7-0.7,0.9   v0c0.2,0,0.3,0.2,0.5,0.4C-181.2,387.5-181,387.9-180.8,388.5z M-181.7,386.1c0-0.3-0.2-0.5-0.7-0.5c-0.2,0-0.3,0-0.4,0   c0,0.3,0,0.6,0,1c0.1,0,0.2,0,0.2,0C-182,386.7-181.7,386.5-181.7,386.1z"
       id="path200" /><path
       class="st5"
       d="M-177.1,386.7c0,0.5-0.2,1-0.5,1.3c-0.3,0.3-0.7,0.5-1.2,0.5c-0.5,0-0.8-0.2-1.1-0.5c-0.3-0.3-0.5-0.7-0.5-1.2   c0-0.5,0.2-1,0.5-1.3c0.3-0.3,0.7-0.5,1.2-0.5c0.5,0,0.8,0.2,1.1,0.5C-177.3,385.8-177.1,386.3-177.1,386.7z M-177.8,386.8   c0-0.4-0.1-0.6-0.3-0.9c-0.2-0.2-0.4-0.3-0.7-0.3c-0.2,0-0.5,0.1-0.6,0.3c-0.2,0.2-0.3,0.5-0.3,0.8c0,0.4,0.1,0.6,0.3,0.9   s0.4,0.3,0.7,0.3c0.2,0,0.5-0.1,0.6-0.3C-177.9,387.4-177.8,387.2-177.8,386.8z"
       id="path202" /><path
       class="st5"
       d="M-175.6,388.5h-0.7c0-0.5,0-1.1,0-1.7c0-0.6,0-1.2,0-1.6h0.7c0,0.4,0,1,0,1.6   C-175.7,387.4-175.7,388-175.6,388.5z"
       id="path204" /><path
       class="st5"
       d="M-171.9,386.7c0,0.5-0.2,0.9-0.5,1.3c-0.3,0.4-0.7,0.5-1.3,0.5c-0.3,0-0.6,0-1,0c0-0.5,0-1.1,0-1.7   c0-0.6,0-1.2,0-1.6h0.4c0.1,0,0.2,0,0.3,0c0.1,0,0.2,0,0.3,0c0.6,0,1.1,0.2,1.3,0.5C-172.1,385.9-171.9,386.3-171.9,386.7z    M-172.6,386.8c0-0.3-0.1-0.6-0.3-0.8c-0.2-0.2-0.5-0.3-0.9-0.3c-0.1,0-0.2,0-0.3,0c0,0.3,0,0.7,0,1.1c0,0.4,0,0.8,0,1.2   c0.1,0,0.2,0,0.3,0c0.4,0,0.6-0.1,0.8-0.3C-172.7,387.4-172.6,387.1-172.6,386.8z"
       id="path206" /><path
       class="st5"
       d="M-167,388.5h-0.8c0-0.1-0.1-0.4-0.2-1h-1.2c-0.2,0.5-0.2,0.8-0.2,1h-0.8c0-0.1,0.2-0.6,0.6-1.6   c0.4-1,0.6-1.6,0.6-1.7h1c0,0.1,0.2,0.7,0.5,1.7S-167,388.4-167,388.5z M-168.2,387c-0.3-0.9-0.4-1.4-0.4-1.4h0   c0,0.1-0.2,0.5-0.5,1.4H-168.2z"
       id="path208" /><path
       class="st5"
       d="M-164,386c0,0.4-0.2,0.7-0.5,0.9c-0.3,0.2-0.7,0.3-1.1,0.3c-0.1,0-0.1,0-0.2,0c0,0.3,0,0.7,0,1.3h-0.7   c0-0.5,0-1.1,0-1.7c0-0.6,0-1.1,0-1.6h0.4c0.1,0,0.2,0,0.4,0c0.2,0,0.3,0,0.5,0c0.3,0,0.6,0.1,0.8,0.2   C-164.1,385.5-164,385.7-164,386z M-164.7,386.1c0-0.4-0.2-0.5-0.7-0.5c-0.1,0-0.2,0-0.4,0c0,0.3,0,0.7,0,1.1c0,0,0.1,0,0.1,0   C-165,386.7-164.7,386.5-164.7,386.1z"
       id="path210" /><path
       class="st5"
       d="M-160.9,386c0,0.4-0.2,0.7-0.5,0.9c-0.3,0.2-0.7,0.3-1.1,0.3c-0.1,0-0.1,0-0.2,0c0,0.3,0,0.7,0,1.3h-0.7   c0-0.5,0-1.1,0-1.7c0-0.6,0-1.1,0-1.6h0.4c0.1,0,0.2,0,0.4,0c0.2,0,0.3,0,0.5,0c0.3,0,0.6,0.1,0.8,0.2   C-161,385.5-160.9,385.7-160.9,386z M-161.6,386.1c0-0.4-0.2-0.5-0.7-0.5c-0.1,0-0.2,0-0.4,0c0,0.3,0,0.7,0,1.1c0,0,0.1,0,0.1,0   C-161.9,386.7-161.6,386.5-161.6,386.1z"
       id="path212" /><path
       class="st5"
       d="M-155.9,386.7c0,0.5-0.2,1-0.5,1.3c-0.3,0.3-0.7,0.5-1.2,0.5c-0.5,0-0.8-0.2-1.1-0.5c-0.3-0.3-0.5-0.7-0.5-1.2   c0-0.5,0.2-1,0.5-1.3c0.3-0.3,0.7-0.5,1.2-0.5c0.5,0,0.8,0.2,1.1,0.5C-156,385.8-155.9,386.3-155.9,386.7z M-156.6,386.8   c0-0.4-0.1-0.6-0.3-0.9c-0.2-0.2-0.4-0.3-0.7-0.3c-0.2,0-0.5,0.1-0.6,0.3s-0.3,0.5-0.3,0.8c0,0.4,0.1,0.6,0.3,0.9s0.4,0.3,0.7,0.3   c0.2,0,0.5-0.1,0.6-0.3C-156.7,387.4-156.6,387.2-156.6,386.8z"
       id="path214" /><path
       class="st5"
       d="M-152.4,388.5h-0.6c0-0.1-0.2-0.4-0.7-1.1c-0.5-0.7-0.8-1.2-0.8-1.5h0c0,0.4,0.1,0.7,0.1,1c0,0.4,0,0.9,0,1.5   h-0.6c0-0.5,0-1.1,0-1.7c0-0.6,0-1.2,0-1.6h0.8c0,0.1,0.2,0.5,0.6,1.1c0.5,0.7,0.7,1.1,0.8,1.4h0c0-0.4-0.1-0.7-0.1-1   c0-0.5,0-0.9,0-1.4h0.6c0,0.4,0,1,0,1.6C-152.4,387.4-152.4,388-152.4,388.5z"
       id="path216" /></g></svg>