<?xml version="1.0" encoding="UTF-8" standalone="no"?>
<svg
   xmlns:dc="http://purl.org/dc/elements/1.1/"
   xmlns:cc="http://creativecommons.org/ns#"
   xmlns:rdf="http://www.w3.org/1999/02/22-rdf-syntax-ns#"
   xmlns:svg="http://www.w3.org/2000/svg"
   xmlns="http://www.w3.org/2000/svg"
   xmlns:sodipodi="http://sodipodi.sourceforge.net/DTD/sodipodi-0.dtd"
   xmlns:inkscape="http://www.inkscape.org/namespaces/inkscape"
   version="1.1"
   id="svg4713"
   viewBox="0 0 219.40401 256.79999"
   height="256.79999"
   width="219.40401"
   inkscape:version="0.91 r13725"
   sodipodi:docname="benachrichtigung_mail.svg">
  <sodipodi:namedview
     pagecolor="#ffffff"
     bordercolor="#666666"
     borderopacity="1"
     objecttolerance="10"
     gridtolerance="10"
     guidetolerance="10"
     inkscape:pageopacity="0"
     inkscape:pageshadow="2"
     inkscape:window-width="825"
     inkscape:window-height="575"
     id="namedview22"
     showgrid="false"
     units="px"
     inkscape:zoom="1.0456357"
     inkscape:cx="103.50106"
     inkscape:cy="112.85001"
     inkscape:window-x="351"
     inkscape:window-y="309"
     inkscape:window-maximized="0"
     inkscape:current-layer="svg4713" />
  <defs
     id="defs4715" />
  <metadata
     id="metadata4718">
    <rdf:RDF>
      <cc:Work
         rdf:about="">
        <dc:format>image/svg+xml</dc:format>
        <dc:type
           rdf:resource="http://purl.org/dc/dcmitype/StillImage" />
        <dc:title></dc:title>
      </cc:Work>
    </rdf:RDF>
  </metadata>
  <g
     transform="translate(12.401997,-826.66222)"
     id="layer1">
    <g
       id="layer1-3"
       transform="translate(-261.9857,405.5571)">
      <g
         transform="translate(-767.81427,-1447.4949)"
         id="g1089">
        <circle
           style="fill:#95caa3"
           id="circle1091"
           r="97.300003"
           cy="1997"
           cx="1127.1"
           class="st26" />
        <path
           style="fill:#324a5e"
           id="path1093"
           d="m 1173,2064.2 -91.8,0 c -0.5,0 -1,-0.5 -1,-1 l 0,-132.3 c 0,-0.5 0.5,-1 1,-1 l 91.8,0 c 0.5,0 1,0.5 1,1 l 0,132.3 c 0,0.5 -0.5,1 -1,1 z"
           class="st24"
           inkscape:connector-curvature="0" />
        <rect
           style="fill:#ffffff"
           id="rect1095"
           height="99.599998"
           width="72"
           class="st2"
           y="1943.8"
           x="1091.1" />
        <g
           id="g1097">
          <circle
             style="fill:#2b3b4e"
             id="circle1099"
             r="5.0999999"
             cy="2052.8999"
             cx="1127.1"
             class="st25" />
          <path
             style="fill:#2b3b4e"
             id="path1101"
             d="m 1143.9,1939.1 -22.2,0 c -1.2,0 -2.1,-0.9 -2.1,-2.1 l 0,0 c 0,-1.2 0.9,-2.1 2.1,-2.1 l 22.2,0 c 1.2,0 2.1,0.9 2.1,2.1 l 0,0 c 0,1.2 -0.9,2.1 -2.1,2.1 z"
             class="st25"
             inkscape:connector-curvature="0" />
          <path
             style="fill:#2b3b4e"
             id="path1103"
             d="m 1113.8,1939.1 -3.5,0 c -1.2,0 -2.1,-0.9 -2.1,-2.1 l 0,0 c 0,-1.2 0.9,-2.1 2.1,-2.1 l 3.5,0 c 1.2,0 2.1,0.9 2.1,2.1 l 0,0 c 0,1.2 -0.9,2.1 -2.1,2.1 z"
             class="st25"
             inkscape:connector-curvature="0" />
        </g>
        <path
           style="opacity:0.1;enable-background:new"
           d="m 1157.4,1955.4 -16.3,34.8 c -0.4,0.9 -1.6,1.1 -2.2,0.4 l -5.7,-5.7 c -0.2,-0.2 -0.6,-0.4 -0.9,-0.4 l -15.6,-0.5 c -0.3,0 -0.6,0.1 -0.8,0.2 l -2.7,1.8 c -0.7,0.5 -0.8,1.5 -0.2,2.1 l 0.5,0.5 -7.7,-4.4 c -1.4,-0.8 -2.8,1 -1.7,2.2 l 11.3,11.3 c 0.6,0.6 0.5,1.5 -0.1,2 l 0,0 c -0.6,0.5 -0.6,1.5 -0.1,2 l 44.9,44.9 c 1.9,1.9 4.9,-0.6 3.3,-2.8 l 0,0 c -0.2,-0.2 -0.3,-0.5 -0.3,-0.8 l 0,-81.3 c 0,-0.4 -0.1,-0.7 -0.4,-1 l -5.3,-5.3 0,0 z"
           class="st27"
           id="path4424_2_"
           inkscape:connector-curvature="0" />
        <path
           style="fill:#1e7272"
           d="m 1114.1,2000.7 18.7,-16.2 -16.6,-0.5 -4.4,3.1 2.3,13.6 z"
           class="st28"
           id="path4166_2_"
           inkscape:connector-curvature="0" />
        <path
           style="fill:#2498a5"
           d="m 1157.4,1955.4 -21.7,46.2 -39.2,-22.6 60.9,-23.6 z"
           class="st3"
           id="rect4136_2_"
           inkscape:connector-curvature="0" />
        <path
           style="fill:#25898e"
           d="m 1157.4,1955.4 -51,29.2 7.7,16.1 0,-11.6 43.3,-33.7 0,0 z"
           class="st29"
           id="path4141_2_"
           inkscape:connector-curvature="0" />
        <g
           id="g4479_2_">
          <path
             style="fill:#95caa3"
             d="m 1119,2015 0,0.5 0,0 0.3,0 0.3,0.1 0.3,0.1 0,0 0,0 0,-0.1 0.1,-0.4 0,0 0,0 0,0 -0.3,-0.1 0,0 0,0 -0.3,-0.1 0,0 0,0 -0.4,0 0,0 0,0 0,0 0,0 z m -2.1,0.3 -0.3,0.1 0,0 0,0 -0.3,0.2 0,0 0,0 -0.3,0.2 0.2,0.5 0.3,-0.2 0.3,-0.1 0.3,-0.1 -0.2,-0.6 0,0 z m 5.2,0.6 -0.3,0.4 0.3,0.2 0.3,0.2 0,0 0.3,0.2 0,0 0,0 0.3,-0.4 0,0 0,0 0,0 -0.3,-0.2 0,0 0,0 -0.3,-0.2 0,0 0,0 -0.3,-0.2 0,0 z m 2.4,2.2 -0.4,0.3 0.2,0.3 0.2,0.3 0.2,0.3 0,0 0,0 0.5,-0.2 0,0 0,0 0,0 -0.2,-0.3 0,0 0,0 -0.2,-0.3 0,0 0,0 -0.3,-0.4 0,0 z m 1.4,2.9 -0.5,0.1 0.1,0.2 0,0 0,0 0.1,0.2 0,0 0,0 0.1,0.3 0,0 0,0.2 0,0.1 0.5,-0.1 0,-0.1 0,0 0,0 0,-0.3 0,0 0,0 -0.1,-0.3 0,0 0,0 -0.1,-0.3 0,0 0,0 -0.1,0 0,0 z"
             class="st26"
             id="path4169_2_"
             inkscape:connector-curvature="0" />
          <path
             style="fill:#95caa3"
             d="m 1109.7,2001.7 -0.1,0.1 0,0 0,0 -0.4,0.2 0,0 0,0 -0.4,0.2 0,0 0,0 -0.1,0 0.3,0.4 0.1,0 0,0 0,0 0.4,-0.2 0.4,-0.2 0,0 0.1,-0.1 -0.3,-0.4 0,0 z m -2.7,1.7 -0.3,0.2 0,0 0,0 -0.3,0.3 0,0 0,0 -0.2,0.2 0.3,0.4 0.2,-0.2 0,0 0.3,-0.3 0,0 0,0 0.3,-0.2 -0.3,-0.4 0,0 z m -2.3,2.2 0,0 0,0 0,0 -0.3,0.4 0,0 0,0 -0.3,0.3 0,0 0,0 -0.1,0.1 0.4,0.3 0.1,-0.1 0.3,-0.3 0,0 0,0 0.3,-0.3 0,0 0.1,-0.1 -0.5,-0.3 0,0 z m -2,2.4 -0.1,0.2 0,0 0,0 -0.2,0.3 0,0 0,0 -0.2,0.3 0.4,0.3 0.2,-0.3 0.2,-0.3 0,0 0,0 0.1,-0.2 -0.4,-0.3 0,0 z m -1.5,2.8 -0.2,0.3 0,0 0,0 -0.2,0.4 0,0 0,0 -0.1,0.3 0.5,0.2 0.1,-0.2 0,0 0,0 0.2,-0.4 0.2,-0.3 -0.5,-0.3 0,0 z m -1.1,3 0,0 0,0 0,0 -0.1,0.5 0,0 0,0 -0.1,0.4 0,0 0,0 0,0.2 0.5,0.1 0,-0.1 0.1,-0.4 0,0 0.1,-0.4 0,0 0,0 0,-0.1 -0.5,-0.2 0,0 z m -0.6,3.1 0,0.2 0,0 0,0 0,0.4 0,0 0,0 0,0.4 0,0 0,0 0,0 0.5,0 0,0 0,0 0,-0.4 0,0 0,0 0,-0.4 0,0 0,0 0,-0.2 -0.5,0 0,0 z m 0.6,3.1 -0.5,0.1 0,0.4 0,0 0,0 0.1,0.4 0,0 0,0 0.1,0.3 0.5,-0.1 0,-0.3 0,0 0,0 -0.1,-0.4 0,0 -0.1,-0.4 0,0 z m 0.6,3 -0.5,0.2 0.1,0.2 0,0 0,0 0.1,0.4 0,0 0,0 0.1,0.3 0,0 0,0 0,0.1 0.5,-0.2 0,-0.1 0,0 0,0 -0.1,-0.3 -0.1,-0.4 0,0 0,0 -0.1,-0.2 0,0 z m 24.9,1.1 0,0.2 0,0.2 0,0 0,0.3 -0.1,0.2 0,0 0,0 0,0.1 0.5,0.1 0,-0.1 0,0 0,0 0.1,-0.3 0,0 0,0 0,-0.3 0,0 0,0 0,-0.3 0,0 0,0 0,-0.2 -0.5,0.1 0,0 z m -23.7,1.8 -0.5,0.3 0.2,0.3 0,0 0,0 0.2,0.3 0,0 0,0 0.2,0.3 0.4,-0.3 -0.2,-0.3 0,0 0,0 -0.2,-0.3 0,0 0,0 -0.1,-0.3 0,0 z m 23,1.1 0,0 -0.3,0.5 -0.2,0.4 0.5,0.3 0.2,-0.4 0,0 0,0 0.2,-0.5 0,0 0,0 0,-0.1 -0.4,-0.2 0,0 z m -21.3,1.4 -0.4,0.3 0.1,0.1 0,0 0,0 0.2,0.3 0,0 0,0 0.2,0.3 0,0 0,0 0.2,0.2 0.4,-0.4 -0.2,-0.2 0,0 -0.2,-0.3 0,0 0,0 -0.3,-0.3 0,0 0,0 0,0 z m 19.6,1.2 0,0 -0.4,0.4 0,0 -0.3,0.3 0.4,0.4 0.3,-0.3 0,0 0,0 0.3,-0.4 0,0 0,0 0,0 -0.3,-0.4 0,0 z m -17.4,1 -0.3,0.4 0.1,0.1 0,0 0,0 0.3,0.2 0,0 0,0 0.3,0.2 0,0 0,0 0.1,0.1 0.3,-0.4 -0.1,-0.1 0,0 -0.3,-0.2 -0.3,-0.2 0,0 0,0 -0.1,-0.1 0,0 z m 15.2,1.1 0,0 -0.5,0.3 0,0 -0.4,0.2 0.3,0.4 0.4,-0.2 0,0 0,0 0.4,-0.3 0,0 0,0 0,0 -0.2,-0.4 0,0 z m -12.6,0.5 -0.2,0.5 0.2,0.1 0,0 0,0 0.3,0.2 0,0 0,0 0.3,0.1 0,0 0,0 0.1,0.1 0.2,-0.5 -0.1,-0.1 -0.3,-0.1 0,0 0,0 -0.3,-0.2 -0.2,-0.1 0,0 z m 9.9,0.8 -0.3,0.1 -0.3,0.1 0,0 0,0 -0.3,0.1 0,0 0,0 0,0 0.1,0.5 0,0 0,0 0,0 0.4,-0.1 0,0 0,0 0.4,-0.1 0,0 0,0 0.3,-0.1 -0.3,-0.5 0,0 z m -7.1,0.3 -0.1,0.5 0.2,0.1 0,0 0,0 0.3,0.1 0,0 0,0 0.3,0.1 0,0 0,0 0.1,0 0.1,-0.5 -0.1,0 -0.3,-0.1 0,0 -0.3,-0.1 0,0 0,0 -0.2,-0.1 0,0 z m 4.1,0.4 0,0 -0.4,0 -0.3,0 0,0 0,0 -0.3,0 0,0.5 0.3,0 0,0 0,0 0.4,0 0,0 0,0 0.4,0 0,0 0,0 0.1,0 -0.2,-0.5 0,0 z"
             class="st26"
             id="path4463_2_"
             inkscape:connector-curvature="0" />
        </g>
      </g>
    </g>
  </g>
</svg>
