<?xml version="1.0" encoding="UTF-8" standalone="no"?>
<svg
   xmlns:dc="http://purl.org/dc/elements/1.1/"
   xmlns:cc="http://creativecommons.org/ns#"
   xmlns:rdf="http://www.w3.org/1999/02/22-rdf-syntax-ns#"
   xmlns:svg="http://www.w3.org/2000/svg"
   xmlns="http://www.w3.org/2000/svg"
   xmlns:sodipodi="http://sodipodi.sourceforge.net/DTD/sodipodi-0.dtd"
   xmlns:inkscape="http://www.inkscape.org/namespaces/inkscape"
   version="1.1"
   id="svg12653"
   viewBox="0 0 219.404 256.79999"
   height="256.79999"
   width="219.40401"
   inkscape:version="0.91 r13725"
   sodipodi:docname="benachrichtigung_push.svg">
  <sodipodi:namedview
     pagecolor="#ffffff"
     bordercolor="#666666"
     borderopacity="1"
     objecttolerance="10"
     gridtolerance="10"
     guidetolerance="10"
     inkscape:pageopacity="0"
     inkscape:pageshadow="2"
     inkscape:window-width="1005"
     inkscape:window-height="692"
     id="namedview24"
     showgrid="false"
     units="px"
     inkscape:zoom="1.0456358"
     inkscape:cx="102.54471"
     inkscape:cy="105.82949"
     inkscape:window-x="1315"
     inkscape:window-y="178"
     inkscape:window-maximized="0"
     inkscape:current-layer="svg12653" />
  <defs
     id="defs12655" />
  <metadata
     id="metadata12658">
    <rdf:RDF>
      <cc:Work
         rdf:about="">
        <dc:format>image/svg+xml</dc:format>
        <dc:type
           rdf:resource="http://purl.org/dc/dcmitype/StillImage" />
        <dc:title></dc:title>
      </cc:Work>
    </rdf:RDF>
  </metadata>
  <circle
     class="st23"
     cx="109.702"
     cy="128.39998"
     r="97.300003"
     id="circle1055"
     style="fill:#96cba4" />
  <path
     inkscape:connector-curvature="0"
     class="st24"
     d="m 155.60198,195.59999 -91.799999,0 c -0.5,0 -1,-0.5 -1,-1 l 0,-132.299988 c 0,-0.5 0.5,-1 1,-1 l 91.799999,0 c 0.5,0 1,0.5 1,1 l 0,132.299988 c 0,0.5 -0.4,1 -1,1 z"
     id="path1057"
     style="fill:#324a5e" />
  <rect
     x="73.702003"
     y="75.200043"
     class="st2"
     width="72"
     height="99.599998"
     id="rect1059"
     style="fill:#ffffff" />
  <circle
     style="fill:#2b3b4e"
     id="circle1063"
     r="5.0999999"
     cy="184.29988"
     cx="109.702"
     class="st25" />
  <path
     style="fill:#2b3b4e"
     id="path1065"
     d="m 126.60198,70.500002 -22.2,0 c -1.2,0 -2.1,-0.9 -2.1,-2.1 l 0,0 c 0,-1.2 0.9,-2.1 2.1,-2.1 l 22.2,0 c 1.2,0 2.1,0.9 2.1,2.1 l 0,0 c 0,1.2 -1,2.1 -2.1,2.1 z"
     class="st25"
     inkscape:connector-curvature="0" />
  <path
     style="fill:#2b3b4e"
     id="path1067"
     d="m 96.401981,70.500002 -3.5,0 c -1.2,0 -2.1,-0.9 -2.1,-2.1 l 0,0 c 0,-1.2 0.9,-2.1 2.1,-2.1 l 3.5,0 c 1.2,0 2.1,0.9 2.1,2.1 l 0,0 c 0.1,1.2 -0.9,2.1 -2.1,2.1 z"
     class="st25"
     inkscape:connector-curvature="0" />
  <g
     id="g1071"
     transform="translate(-1242.198,-1868.6)">
    <g
       id="g1073">
      <path
         style="fill:#2399a6"
         id="path1075"
         d="m 1344.8,2015.2 c 0,0 0,0 0,0 0,3.7 2.9,6.6 6.5,6.6 3.6,0 6.5,-2.9 6.5,-6.5 0,0 0,0 0,0 l -13,0 z m 0,0"
         class="st8"
         inkscape:connector-curvature="0" />
      <path
         style="fill:#2399a6"
         id="path1077"
         d="m 1372.2,2007 -5.9,-8.7 0,-10.8 c 0,-7.3 -5.2,-13.4 -12.1,-14.7 l 0,-3.3 c 0,-1.6 -1.3,-2.9 -2.9,-2.9 -1.6,0 -2.9,1.3 -2.9,2.9 l 0,3.3 c -6.9,1.4 -12.1,7.4 -12.1,14.7 l 0,10.8 -5.9,8.7 c -0.6,0.9 -0.7,2.1 -0.2,3.1 0.5,1 1.5,1.6 2.6,1.6 l 36.9,0 c 1.1,0 2.1,-0.6 2.6,-1.6 0.6,-1 0.6,-2.2 -0.1,-3.1 l 0,0 z m 0,0"
         class="st8"
         inkscape:connector-curvature="0" />
    </g>
  </g>
  <path
     inkscape:connector-curvature="0"
     class="st8"
     d="m 212.30198,2.0628538e-6 -82.6,0 c -4.1,0 -7.1,3.3999999371462 -7.1,7.0999999371462 l 0,47.4 c 0,4.1 3.4,7.1 7.1,7.1 l 2.7,0 0,17.6 15.2,-17.6 64.7,0 c 4.1,0 7.1,-3.4 7.1,-7.1 l 0,-47.4 c 0.1,-4 -3.3,-7.0999999371462 -7.1,-7.0999999371462 z"
     id="path1079"
     style="fill:#2399a6" />
  <circle
     style="fill:#ffffff"
     id="circle1083"
     r="7.8000002"
     cy="30.800028"
     cx="146.702"
     class="st2" />
  <circle
     style="fill:#ffffff"
     id="circle1085"
     r="7.8000002"
     cy="30.800028"
     cx="171.00192"
     class="st2" />
  <circle
     style="fill:#ffffff"
     id="circle1087"
     r="7.8000002"
     cy="30.800028"
     cx="195.10202"
     class="st2" />
</svg>
