<?xml version="1.0" encoding="UTF-8" standalone="no"?>
<svg
   xmlns:dc="http://purl.org/dc/elements/1.1/"
   xmlns:cc="http://creativecommons.org/ns#"
   xmlns:rdf="http://www.w3.org/1999/02/22-rdf-syntax-ns#"
   xmlns:svg="http://www.w3.org/2000/svg"
   xmlns="http://www.w3.org/2000/svg"
   xmlns:sodipodi="http://sodipodi.sourceforge.net/DTD/sodipodi-0.dtd"
   xmlns:inkscape="http://www.inkscape.org/namespaces/inkscape"
   version="1.1"
   id="svg24062"
   viewBox="0 0 1324.5706 1458.3146"
   height="411.56879mm"
   width="373.82327mm"
   inkscape:version="0.91 r13725"
   sodipodi:docname="faden.svg">
  <sodipodi:namedview
     pagecolor="#ffffff"
     bordercolor="#666666"
     borderopacity="1"
     objecttolerance="10"
     gridtolerance="10"
     guidetolerance="10"
     inkscape:pageopacity="0"
     inkscape:pageshadow="2"
     inkscape:window-width="1908"
     inkscape:window-height="1111"
     id="namedview173"
     showgrid="false"
     inkscape:zoom="0.16183065"
     inkscape:cx="662.28533"
     inkscape:cy="729.1573"
     inkscape:window-x="228"
     inkscape:window-y="167"
     inkscape:window-maximized="0"
     inkscape:current-layer="svg24062" />
  <defs
     id="defs24064" />
  <metadata
     id="metadata24067">
    <rdf:RDF>
      <cc:Work
         rdf:about="">
        <dc:format>image/svg+xml</dc:format>
        <dc:type
           rdf:resource="http://purl.org/dc/dcmitype/StillImage" />
        <dc:title />
      </cc:Work>
    </rdf:RDF>
  </metadata>
  <g
     transform="translate(-8834.8575,12293.938)"
     id="layer1"
     style="opacity:0.3">
    <g
       id="g1370"
       transform="translate(8114.2282,-18452.138)"
       style="">
      <path
         style="fill:#2498a5"
         id="path1372"
         d="m 1491.1,6417.9 -5.9,-3.6 c 46,-53.6 131.5,-153.3 152.6,-147.6 l 5.5,3.1 c -13.1,0.6 -36.6,12.5 -152.2,148.1"
         class="st3" />
      <path
         style="fill:#2498a5"
         id="path1374"
         d="m 1853.5,6891 -2.5,-6.6 c 57.9,-46.8 165.8,-133.9 144.2,-199.5 l 2.5,6.7 c 4.2,27.9 12.2,79.8 -144.2,199.4"
         class="st3" />
      <path
         style="fill:#2498a5"
         id="path1376"
         d="m 1786.3,7027.8 -1.7,-6.1 c 87.9,-54.4 251.6,-155.6 235.9,-256.7 l 1.7,6.8 c 4.3,57.1 -21.2,127.6 -235.9,256"
         class="st3" />
      <path
         style="fill:#2498a5"
         id="path1378"
         d="m 1580.5,7143.6 -1.4,-5 c 310.7,-137.4 460.6,-257.6 445.4,-357.4 l 1.6,6.8 c 6.5,107.6 -143.4,227.3 -445.6,355.6"
         class="st3" />
      <path
         style="fill:#2498a5"
         id="path1380"
         d="m 1974,6983 -1,-6.6 c 39,-42.5 67.2,-73.1 64.1,-128.9 l 1,7 c -0.6,36.8 -0.9,63.4 -64.1,128.5"
         class="st3" />
      <path
         style="fill:#2498a5"
         id="path1382"
         d="m 1079.5,6493.1 -5.3,-1.2 c 41.7,-83 168.6,-335.6 270,-325.4 l 6.3,0.9 c -28,0.9 -113,3.5 -271,325.7"
         class="st3" />
      <path
         style="fill:#2498a5"
         id="path1384"
         d="m 1362.7,6221.2 -6.2,-1.7 c 38.9,-31.3 48,-36.7 76.1,-35.5 l 5.9,1.5 c -26.1,-0.8 -34.1,1.7 -75.8,35.7"
         class="st3" />
      <path
         style="fill:#2498a5"
         id="path1386"
         d="m 904.7,6640.6 -4.3,-0.4 c 32.5,-112.3 131.5,-454.2 294.5,-481.3 l 6.5,-0.2 c -110,18.7 -207,176.3 -296.7,481.9"
         class="st3" />
      <path
         style="fill:#2498a5"
         id="path1388"
         d="m 1041.6,6803.1 -3.7,-1.7 c 308,-612.7 423.6,-608.4 435.7,-605.8 l 6,1.9 c -96.2,-5.2 -296.1,323 -438,605.6"
         class="st3" />
      <path
         style="fill:#2498a5"
         id="path1390"
         d="m 1155.5,6614.5 -4.9,-2.1 c 163.6,-279.6 277.1,-418.3 337.2,-412.2 l 6,2 c -61.1,-3.8 -174.9,135 -338.3,412.3"
         class="st3" />
      <path
         style="fill:#2498a5"
         id="path1392"
         d="m 1167.5,6412.4 -5.7,-1.5 c 86.8,-143.3 158.7,-238.4 227.5,-236.7 l 6.2,1.3 c -60,-0.6 -124,65.8 -228,236.9"
         class="st3" />
      <path
         style="fill:#2498a5"
         id="path1394"
         d="m 1342.7,7323.9 -0.4,-3.3 c 424.7,-69 687.5,-201.9 702.9,-355.5 l -0.1,7.2 c -34.4,233.7 -546.3,328.2 -702.4,351.6"
         class="st3" />
      <path
         style="fill:#2498a5"
         id="path1396"
         d="m 970.5,6937.1 -2.8,-1.3 c 226.9,-508.7 423.7,-762.9 493.7,-743.9 l 5.9,1.8 c -51.1,-2.5 -158.2,81.5 -378,495.6 l 0.1,0 c -37.1,73.1 -72.1,142.2 -118.9,247.8"
         class="st3" />
      <path
         style="fill:#2498a5"
         id="path1398"
         d="m 1794.5,7257.9 0.3,-5.5 c 114.8,-50.9 228.4,-109.8 247.1,-219.6 l -0.7,7.1 c -14,61 -45.7,133.2 -246.7,218"
         class="st3" />
      <path
         style="fill:#2498a5"
         id="path1400"
         d="m 1053.6,6576.7 -4.8,-1.2 c 128.7,-275.8 233.1,-412.7 310.3,-406.7 l 6.1,1 c -82.7,1.5 -187.6,138.4 -311.6,406.9"
         class="st3" />
      <path
         style="fill:#2498a5"
         id="path1402"
         d="m 1571,6351.8 -6,-3.7 c 34.1,-36.2 72.8,-77.2 85.7,-73.8 l 1.7,1 3.7,2.2 c -8.2,0.7 -17.5,1.4 -85.1,74.3"
         class="st3" />
      <path
         style="fill:#2498a5"
         id="path1404"
         d="m 1468.7,6494.3 -5.6,-3.7 c 62,-73.3 177.4,-209.6 200.5,-208.6 l 5.3,3.3 c -12.9,1.9 -46.8,28.3 -200.2,209"
         class="st3" />
      <path
         style="fill:#2498a5"
         id="path1406"
         d="m 1518.6,6510.3 -5.5,-4.1 c 61.4,-69.5 175.7,-198.8 188.1,-199.5 l 5.2,3.6 c -5.4,2.6 -18.2,8.6 -187.8,200"
         class="st3" />
      <path
         style="fill:#2498a5"
         id="path1408"
         d="m 1666.8,6769.5 -3.9,-5.4 c 70.4,-59.9 257.5,-219 233,-265.4 l 3.8,5.4 c 4.3,16.1 15.5,59 -232.9,265.4"
         class="st3" />
      <path
         style="fill:#2498a5"
         id="path1410"
         d="m 1648.7,6864 -3.4,-5.6 c 212.8,-160.6 309.1,-263.5 286.1,-305.7 l 3.4,5.7 c 7,28.4 -2.1,47.2 -51,105.5 l 0.1,0.2 c -34.7,35.8 -92.6,95.8 -235.2,199.9"
         class="st3" />
      <path
         style="fill:#2498a5"
         id="path1412"
         d="m 1227.9,7150 -1.8,-3.1 c 502.4,-272.1 742.7,-491.7 720.3,-568 l 3.3,6.1 c 22.1,94.2 -281.4,331.8 -721.8,565"
         class="st3" />
      <path
         style="fill:#2498a5"
         id="path1414"
         d="m 1710.6,7212.2 -0.5,-5.4 c 99.6,-40.8 332.8,-136.2 334.5,-275.9 l 0.2,7.2 c -4.3,41.5 -16,151.8 -334.2,274.1"
         class="st3" />
      <path
         style="fill:#2498a5"
         id="path1416"
         d="m 1864.2,7199.7 0.1,-5.9 c 91.6,-52.7 168.3,-103.7 179.9,-194.8 l -0.4,7.1 c -10.4,55.8 -32,112.7 -179.6,193.6"
         class="st3" />
      <path
         style="fill:#2498a5"
         id="path1418"
         d="m 1399.2,7374.7 0.1,-3.5 c 510.3,-51.5 617.5,-202.6 636.1,-288 l -1.2,7 c -13.3,45.6 -48.6,166.7 -385.3,247.8 l 0,0.3 c -66.4,13.3 -141.7,28.5 -249.7,36.4"
         class="st3" />
      <path
         style="fill:#2498a5"
         id="path1420"
         d="m 1612,7356.7 0.5,-4.5 c 184.6,-41.6 378.8,-104.1 420,-252.1 l -1.3,7.1 c -25.1,79.9 -95.4,180.4 -419.2,249.5"
         class="st3" />
      <path
         style="fill:#2498a5"
         id="path1422"
         d="m 1902.8,7278.6 1.2,-5.6 c 69.4,-47.1 99.9,-73.1 122.1,-141.3 l -1.6,7 c -19.9,55.7 -36.5,84 -121.7,139.9"
         class="st3" />
      <path
         style="fill:#2498a5"
         id="path1424"
         d="m 1917,7363.3 2.4,-5 c 37.3,-38.3 38,-39 52.3,-67.2 l -3.1,6.5 c -25,40.9 -25.9,42.5 -51.6,65.7"
         class="st3" />
      <path
         style="fill:#2498a5"
         id="path1426"
         d="m 1746.7,7473.8 2.2,-4.3 c 72.8,-24.2 148.1,-49.3 199.4,-132.6 l -3.5,6.3 c -29.3,42 -62.5,89.8 -198.1,130.6"
         class="st3" />
      <path
         style="fill:#2498a5"
         id="path1428"
         d="m 1284.6,7499 1.1,-2.4 c 329.1,55.4 543.3,16.5 636.6,-115.6 l -3.9,6.1 C 1812.2,7520.8 1599,7558.5 1284.6,7499"
         class="st3" />
      <path
         style="fill:#2498a5"
         id="path1430"
         d="m 1302,7540.3 1.5,-2.3 c 102.6,21.4 414.8,86.4 558.2,-74.3 l -4.6,5.5 c -41.1,40.2 -166.1,162.6 -555.1,71.1"
         class="st3" />
      <path
         style="fill:#2498a5"
         id="path1432"
         d="m 1701,7563.3 3.1,-3.6 c 53.3,-17.5 103.6,-34 146.6,-83.1 l -4.7,5.4 c -46.9,44 -63.2,54.9 -145,81.3"
         class="st3" />
      <path
         style="fill:#2498a5"
         id="path1434"
         d="m 1342.8,7135.4 -1.9,-3.9 c 506.2,-251.5 658.4,-423 635,-493.5 l 1.9,4.4 0.9,2.1 c 23.9,116.6 -302.2,330.5 -635.9,490.9"
         class="st3" />
      <path
         style="fill:#2498a5"
         id="path1436"
         d="m 779.5,6786.8 -3.2,0.3 c 27.3,-350.6 109.9,-553.4 245.6,-602.7 l 6.5,-1.7 C 891.7,6232.9 808,6436.1 779.5,6786.8"
         class="st3" />
      <path
         style="fill:#2498a5"
         id="path1438"
         d="m 857.1,6919.2 -2.7,-0.5 c 94.4,-513.9 251.4,-752.2 365.2,-760.4 l 6.5,0 c -164.5,23.7 -303.9,399.2 -369,760.9"
         class="st3" />
      <path
         style="fill:#2498a5"
         id="path1440"
         d="m 1232.9,6563.1 -5.2,-2.5 c 157.5,-240 253.6,-349.8 302.4,-345.3 l 5.8,2.3 c -48.4,-3.5 -144.7,106.2 -303,345.5"
         class="st3" />
      <path
         style="fill:#2498a5"
         id="path1442"
         d="m 1170.7,6729.2 -4.3,-2.4 c 314.9,-481.4 389.5,-499.9 404.8,-494.1 l 5.7,2.6 c -76.6,-4.1 -351.8,410.7 -406.2,493.9"
         class="st3" />
      <path
         style="fill:#2498a5"
         id="path1444"
         d="m 1298.5,6490.8 -5.6,-2.7 c 58.5,-82.7 195.3,-276.2 251,-267.3 l 5.8,2.4 c -41.3,-2.8 -116.4,77.3 -251.2,267.6"
         class="st3" />
      <path
         style="fill:#2498a5"
         id="path1446"
         d="m 1647,6392.8 -5.8,-4.3 c 27.1,-29.2 68.2,-73.4 72.3,-73.1 l 5.1,3.8 c -4,2.6 -9.5,6.2 -71.6,73.6"
         class="st3" />
      <path
         style="fill:#2498a5"
         id="path1448"
         d="m 1203.8,6327 -6,-1.3 c 42.5,-60.7 113.6,-162.2 176.2,-154.4 l 6.1,1.1 c -25.2,0.1 -72.1,0.4 -176.3,154.6"
         class="st3" />
      <path
         style="fill:#2498a5"
         id="path1450"
         d="m 1433.9,6736.2 -4.4,-4.1 c 284.8,-290.6 343.7,-361.4 342.9,-369.5 l 4.4,3.9 c -3.3,16.5 -93.1,114.7 -266.7,291.8 l 0.4,0.3 c -22.9,23.3 -53.5,54.3 -76.6,77.6"
         class="st3" />
      <path
         style="fill:#2498a5"
         id="path1452"
         d="m 1684.2,6551.9 -4.7,-4.7 c 44,-45.8 135.5,-141.2 126.7,-153.4 l 4.3,4.2 c 0.4,7.5 1.4,22.9 -126.3,153.9"
         class="st3" />
      <path
         style="fill:#2498a5"
         id="path1454"
         d="m 1859.4,6756.7 -3.4,-6.5 c 49,-47.5 116.2,-112.6 98.3,-156.8 l 3.2,6.1 c 4.9,21.7 12.3,54.6 -98.1,157.2"
         class="st3" />
      <path
         style="fill:#2498a5"
         id="path1456"
         d="m 1629.9,6559 -4.6,-4.3 c 116.1,-121.2 157.6,-168.8 158.7,-181.9 l 4.2,3.9 c -1.3,14.6 -42.7,62.3 -158.3,182.3"
         class="st3" />
      <path
         style="fill:#2498a5"
         id="path1458"
         d="m 1852.9,7103.7 -0.8,-6.2 c 72.8,-44.9 194.7,-120.1 189,-216.7 l 0.7,7.1 c -1.8,38.3 -5.3,109.6 -188.9,215.8"
         class="st3" />
      <path
         style="fill:#2498a5"
         id="path1460"
         d="m 1594.1,6747.8 -4.2,-5.1 c 194.4,-173.5 284.3,-272.4 267.2,-294 l 4.2,5 c 10.5,41.2 -139.5,182.7 -267.2,294.1"
         class="st3" />
      <path
         style="fill:#2498a5"
         id="path1462"
         d="m 1392.7,6902.2 -3.4,-4.1 c 469.7,-395.5 465,-452 459.3,-459.3 l 4,4.6 c 9,38.6 -127.9,168.4 -263,290.2 l 0.3,0.4 c -53.9,47.2 -109.6,96 -197.2,168.2"
         class="st3" />
      <path
         style="fill:#2498a5"
         id="path1464"
         d="m 1587.3,7389.9 0.7,-4.2 c 185.9,-33.5 382.9,-88 434.2,-237.4 l -1.8,7 c -30.7,80.5 -107.7,180 -433.1,234.6"
         class="st3" />
      <path
         style="fill:#2498a5"
         id="path1466"
         d="m 1787.1,6859.2 -3.1,-6.3 c 68.8,-53.8 211.9,-165.8 184.9,-230 l 2.9,6.3 c 5.1,23.7 16.9,79 -184.7,230"
         class="st3" />
      <path
         style="fill:#2498a5"
         id="path1468"
         d="m 1944.7,6788.1 -2.7,-6.8 c 37.6,-46.5 56.8,-72.6 47.1,-112.1 l 2.6,6.6 c 5.5,32.6 2.8,53.1 -47,112.3"
         class="st3" />
      <path
         style="fill:#2498a5"
         id="path1470"
         d="m 1656.6,7457.3 1.6,-4.2 c 127.7,-24.8 257.5,-58.8 319.3,-175 l -3,6.6 c -46.9,80.2 -116.4,137 -317.9,172.6"
         class="st3" />
      <path
         style="fill:#2498a5"
         id="path1472"
         d="m 1662.7,6834 -3.6,-5.6 c 141.2,-110.8 282.9,-231.8 263.7,-289.6 l 3.6,5.8 c 12.5,49.6 -68.8,138.9 -263.7,289.4"
         class="st3" />
      <path
         style="fill:#2498a5"
         id="path1474"
         d="m 1821.7,6678.5 -3.9,-6 c 47.4,-47.8 112.3,-113.2 96.4,-147.3 l 3.6,5.6 c 4.3,17.2 11,43.2 -96.1,147.7"
         class="st3" />
      <path
         style="fill:#2498a5"
         id="path1476"
         d="m 1966,6832.1 -2.2,-6.8 c 29.4,-38.2 52.6,-68.4 42.6,-108.5 l 2.2,6.7 c 3.2,27.1 6.1,50.5 -42.6,108.6"
         class="st3" />
      <path
         style="fill:#2498a5"
         id="path1478"
         d="m 1817.6,7152.2 -0.5,-5.9 c 140,-75.5 222,-137.7 226.8,-232.4 l 0.2,3.9 0.2,3.2 c -6.2,72.4 -46.3,136.4 -226.7,231.2"
         class="st3" />
      <path
         style="fill:#2498a5"
         id="path1480"
         d="m 1405.4,7366 0.1,-3.5 c 511.1,-59.4 615.7,-211 632.5,-296.1 l -1,6.8 0,0.2 c -55.3,205.9 -419.5,271.7 -631.6,292.6"
         class="st3" />
      <path
         style="fill:#2498a5"
         id="path1482"
         d="m 1516.5,7557.1 2.1,-3.2 c 161.4,-0.6 278.6,-20.3 364.3,-116.8 l -4.4,5.7 c -67.7,72 -151.9,116.3 -362,114.3"
         class="st3" />
      <path
         style="fill:#2498a5"
         id="path1484"
         d="m 1774.7,7017.6 -1.9,-6.1 c 133.9,-83.2 256,-172.5 243.3,-262.6 l 1.9,6.8 c 5.1,56.1 -20.8,126.8 -243.3,261.9"
         class="st3" />
      <path
         style="fill:#2498a5"
         id="path1486"
         d="m 1602.8,6701 -4.5,-5.1 c 75.8,-70.9 253.2,-236.8 239.9,-268.7 l 4,4.5 c 3.3,16 -12.9,44.7 -103.3,138 l 0.4,0.4 c -53.4,53.2 -68.7,67.9 -136.5,130.9"
         class="st3" />
      <path
         style="fill:#2498a5"
         id="path1488"
         d="m 1667.6,7175.7 -0.9,-5.3 c 95.5,-40.6 386.2,-164.1 372.6,-306.3 l 0.8,7 c -3.3,105.4 -128.6,207.8 -372.5,304.6"
         class="st3" />
      <path
         style="fill:#2498a5"
         id="path1490"
         d="m 1975.3,7110.9 0.1,-6.3 c 35.9,-37 66.9,-69 69.5,-122.6 l -0.2,7.2 c -5.9,35.4 -11.5,68.8 -69.4,121.7"
         class="st3" />
      <path
         style="fill:#2498a5"
         id="path1492"
         d="m 1278.8,7411.5 0.3,-2.7 c 173.4,3.8 255.7,-2.3 400.4,-29.6 l 0,0 c 95.2,-24.1 293.2,-74.4 338.3,-214.3 l -1.9,6.7 c -10.9,26.9 -23.2,57.3 -62.4,92.3 l 0,0.1 c -181.6,139.2 -467.1,157 -674.7,147.5"
         class="st3" />
      <path
         style="fill:#2498a5"
         id="path1494"
         d="m 1634.5,6733.6 -4.2,-5.3 c 70.1,-62.6 256.2,-228.7 236.7,-267.5 l 4.2,5.2 c 3.5,13.3 12.8,48.6 -236.7,267.6"
         class="st3" />
      <path
         style="fill:#2498a5"
         id="path1496"
         d="m 1724,7568.4 3.4,-3.6 c 52.5,-23.5 56.8,-25.4 88,-51.2 l -0.3,0.3 12.3,-11.9 -4.6,4.8 c -41.4,35.8 -43,37.2 -98.8,61.6"
         class="st3" />
      <path
         style="fill:#2498a5"
         id="path1498"
         d="m 1873,7328.7 1.5,-5.3 c 82.1,-48.7 110.3,-73.2 138.8,-142.1 l -2.1,6.9 c -28.1,65.6 -52.7,90.5 -138.2,140.5"
         class="st3" />
      <path
         style="fill:#2498a5"
         id="path1500"
         d="m 1633.5,7422 1.2,-4.3 c 159.4,-30.3 314.4,-76 368.3,-204.3 l -2.3,6.7 c -37.4,78.5 -107.7,157.2 -367.2,201.9"
         class="st3" />
      <path
         style="fill:#2498a5"
         id="path1502"
         d="m 1977.3,7257.2 1.8,-5.5 c 9.9,-15.6 22.2,-37.1 29.2,-54.1 l -1.2,3.7 c -5.7,12.8 -13.3,30.1 -20.7,42 l -0.8,2.5 -8.3,11.4"
         class="st3" />
      <path
         style="fill:#2498a5"
         id="path1504"
         d="m 1218.9,6977.9 -2.9,-3 c 346.5,-325.4 574,-557.5 579.4,-591.4 -0.1,-0.1 -0.2,-0.3 -0.3,-0.4 l 4.7,4.5 c -0.1,39.9 -347.5,374.9 -580.9,590.3"
         class="st3" />
      <path
         style="fill:#2498a5"
         id="path1506"
         d="m 1802.4,7267.4 0.4,-5.5 c 81.8,-36.7 218.7,-98 237.3,-212.3 l -0.8,7.1 c -10.9,43.7 -31.1,125.1 -236.9,210.7"
         class="st3" />
      <path
         style="fill:#2498a5"
         id="path1508"
         d="m 1301.5,7577.9 1.9,-2.1 c 103.2,26 344.9,86.9 488.2,-38.5 l -5.2,4.8 c -45.3,34.5 -165.4,126 -484.9,35.8"
         class="st3" />
      <path
         style="fill:#2498a5"
         id="path1510"
         d="m 1722.5,7340.4 0.7,-4.9 c 89.9,-28.8 277.1,-88.8 306.5,-220.6 l -1.5,7.1 c -14.5,43.4 -48.6,145.3 -305.7,218.4"
         class="st3" />
      <path
         style="fill:#2498a5"
         id="path1512"
         d="m 1929.9,6967 -1.5,-6.6 c 74.5,-66.1 104.8,-103.3 99.7,-162.8 l 1.5,7 c 2.1,50.8 -11.8,86.3 -99.7,162.4"
         class="st3" />
      <path
         style="fill:#2498a5"
         id="path1514"
         d="m 1511.3,6344.8 -6.1,-3.3 c 58.3,-63.7 85.9,-90.1 106.2,-89.1 l 5.6,2.9 c -18.6,-0.2 -41.4,19 -105.7,89.5"
         class="st3" />
      <polyline
         style="fill:#2498a5"
         id="polyline1516"
         points="1945.2,7341.1 1947.7,7336.2 1957.8,7319 1954.5,7325.4 1945.2,7341.1     "
         class="st3" />
      <path
         style="fill:#2498a5"
         id="path1518"
         d="m 1720.5,6702.1 -4.2,-5.7 c 62.4,-57.2 192.1,-176.1 170.3,-210.6 l 3.9,5.3 c 6.2,23.3 -8.8,55.2 -103.5,149.3 l 0.1,0.1 c -19.9,18.6 -46.4,43.4 -66.6,61.6"
         class="st3" />
      <path
         style="fill:#2498a5"
         id="path1520"
         d="m 1722.7,6562.6 -4.9,-5.4 c 63.4,-66.1 115.4,-122.3 110,-141.4 l 4.5,4.8 c 2.6,15.8 -14.1,43.1 -109.6,142"
         class="st3" />
      <path
         style="fill:#2498a5"
         id="path1522"
         d="m 1411.2,7037.4 -2.5,-4.3 c 532.5,-331.9 541.1,-440.9 531,-466.3 l 3.3,5.8 c 8.6,35.7 -13.1,82.9 -146.7,197.4 l 0.1,0.1 c -123.6,99.9 -206.4,157.3 -385.2,267.3"
         class="st3" />
      <path
         style="fill:#2498a5"
         id="path1524"
         d="m 1801.4,7068.8 -1.3,-6.1 c 79.8,-47.2 245.8,-145.5 231.4,-248.6 l 1.3,7 c 0.8,37.8 2.7,116.5 -231.4,247.7"
         class="st3" />
      <path
         style="fill:#2498a5"
         id="path1526"
         d="m 1295.7,7197.1 -1.4,-3.5 C 1741.4,7014.5 2018.8,6821 2001,6700.8 l 2.3,6.7 c 16.8,122.1 -260.9,314.3 -707.6,489.6"
         class="st3" />
      <path
         style="fill:#2498a5"
         id="path1528"
         d="m 1601.2,7436.2 1.2,-4.1 c 192.6,-29.6 333.5,-75.3 394.7,-202.3 l -2.6,6.8 c -55.3,110.4 -165.6,166.4 -393.3,199.6"
         class="st3" />
      <path
         style="fill:#2498a5"
         id="path1530"
         d="m 1552.5,7273.6 -0.4,-4.5 c 323.3,-92 489.1,-200.1 493,-321.1 l 0.1,7.2 c -20.4,161.5 -279.2,262.3 -492.7,318.4"
         class="st3" />
      <path
         style="fill:#2498a5"
         id="path1532"
         d="m 1920.6,7076.8 -0.6,-6.4 c 84,-64.6 119.6,-103 122.7,-173.2 l 0.5,7 c -4.4,65.9 -30.7,103 -122.6,172.6"
         class="st3" />
      <path
         style="fill:#2498a5"
         id="path1534"
         d="m 1363.4,7101.5 -2.1,-4 c 519.1,-283.3 621.7,-440.9 600.4,-489.4 l 3.1,6.3 c 26.8,121.2 -365.4,363.2 -601.4,487.1"
         class="st3" />
      <path
         style="fill:#2498a5"
         id="path1536"
         d="m 1384.7,6362.1 -6.1,-2.7 c 45.9,-56.9 122.8,-152.2 159.2,-141 l 5.8,2.4 c -15.6,-1.1 -44.7,-3.2 -158.9,141.3"
         class="st3" />
      <path
         style="fill:#2498a5"
         id="path1538"
         d="m 1799.8,6776.2 -3.5,-6.2 -0.1,-0.1 c 62.2,-54.5 166.3,-145.6 146.7,-197.4 l 3.4,6 c 6.9,29.4 1.9,71.2 -146.5,197.7"
         class="st3" />
      <path
         style="fill:#2498a5"
         id="path1540"
         d="m 1746.8,6918.6 -2.8,-6.2 c 73.5,-51.9 268.6,-189.7 235.6,-265.9 l 2.8,6.6 c 12.5,63.7 -53.6,138.1 -235.6,265.5"
         class="st3" />
      <path
         style="fill:#2498a5"
         id="path1542"
         d="m 1548,7053.6 -2.3,-5.1 c 309.5,-171.2 457.7,-301.1 440.5,-386.3 l 2.7,6.6 c 15.6,87.6 -132.7,217.1 -440.9,384.8"
         class="st3" />
      <path
         style="fill:#2498a5"
         id="path1544"
         d="m 1946.7,6864.6 -2.1,-6.7 c 34.9,-38 78.4,-85.3 64.7,-132.1 l 2.1,6.7 c 2.8,25.8 6.8,61.3 -64.7,132.1"
         class="st3" />
      <path
         style="fill:#2498a5"
         id="path1546"
         d="m 986.9,6478.2 -5.2,-0.5 c 64.2,-151.6 144.1,-308.2 250,-319.5 l 6.5,0.1 c -86.1,11.3 -161.3,107 -251.3,319.9"
         class="st3" />
      <path
         style="fill:#2498a5"
         id="path1548"
         d="m 1250.8,6198.5 -6.3,-0.8 c 33.5,-25 46,-34.4 78.1,-33.9 l 6.3,0.8 c -26.7,1.2 -37.8,1.8 -78.1,33.9"
         class="st3" />
      <path
         style="fill:#2498a5"
         id="path1550"
         d="m 830.7,6639 -4.1,0.2 c 58.8,-285.6 144.2,-443 253.9,-467.8 l 6.5,-1.1 C 971.4,6204.3 885.1,6362 830.7,6639"
         class="st3" />
      <polyline
         style="fill:#2498a5"
         id="polyline1552"
         points="1815.1,7513.9 1815.4,7513.6 1818.7,7510.1 1832.3,7496.8 1827.4,7502 1815.1,7513.9     "
         class="st3" />
      <path
         style="fill:#2498a5"
         id="path1554"
         d="m 975.5,6777.4 -3.7,-1.2 c 37.5,-97.1 44.2,-114.6 81.9,-199.5 130.3,-276.2 235.1,-413.1 311.6,-406.9 l 6.3,1.1 c -162.7,2 -372.7,544.7 -396.1,606.5"
         class="st3" />
      <path
         style="fill:#2498a5"
         id="path1556"
         d="m 1069.2,6583.2 -4.9,-1.4 c 48.6,-100.5 82.2,-167.9 139.4,-254.8 39.9,-56.8 114.2,-162.6 176.4,-154.5 l 6.2,1.2 c -79.6,-0.2 -186.3,137.6 -317.1,409.5"
         class="st3" />
      <path
         style="fill:#2498a5"
         id="path1558"
         d="m 1066.6,6392.7 -5.6,-0.7 c 43.3,-80.6 123.9,-230.7 217,-232.3 l 6.3,0.4 c -52,4.6 -114.3,35.9 -217.7,232.6"
         class="st3" />
      <path
         style="fill:#2498a5"
         id="path1560"
         d="m 1332.2,7263.6 -0.9,-3.5 c 708.7,-189.9 707.1,-397.4 704.6,-420.5 l 1.1,7 c -1,191.7 -443.5,352.3 -704.8,417"
         class="st3" />
      <path
         style="fill:#2498a5"
         id="path1562"
         d="m 919.9,6916.6 -2.9,-1 c 167,-519.1 339,-749.7 435.4,-747.8 l 6.3,1 c -118.1,2.7 -294.5,303.2 -438.8,747.8"
         class="st3" />
      <path
         style="fill:#2498a5"
         id="path1564"
         d="m 1792.4,7157.9 -0.6,-5.8 c 83,-42.4 255.6,-130.5 251.5,-245.6 l 0.5,7 c -2.9,38.7 -9.9,129.2 -251.4,244.4"
         class="st3" />
      <path
         style="fill:#2498a5"
         id="path1566"
         d="m 968.2,6559.7 -4.8,-0.6 c 125.9,-333.3 223.8,-401.8 283.8,-400.6 l 6.5,0.2 c -120.9,13.8 -222,225.7 -285.5,401"
         class="st3" />
      <path
         style="fill:#2498a5"
         id="path1568"
         d="m 1462.3,6294 -6.3,-2.8 c 33.8,-34.9 72.2,-74.4 95.5,-67.1 l 5.8,2.5 c -13.5,-0.9 -30.3,-2 -95,67.4"
         class="st3" />
      <path
         style="fill:#2498a5"
         id="path1570"
         d="m 1367.3,6435.4 -5.8,-2.9 c 56.6,-73.9 161.9,-211.4 203.7,-202.5 l 5.7,2.6 c -24.4,-1.4 -65.9,22.1 -203.6,202.8"
         class="st3" />
      <path
         style="fill:#2498a5"
         id="path1572"
         d="m 1418.4,6445.1 -5.8,-3.2 c 52.7,-65.4 162.2,-201.6 193,-192.6 l 5.6,2.9 c -11.4,-0.2 -37.9,-0.7 -192.8,192.9"
         class="st3" />
      <path
         style="fill:#2498a5"
         id="path1574"
         d="m 1591.4,6676.3 -4.6,-4.9 c 67.2,-64.7 245.5,-236.7 234.5,-262.4 l 4.5,4.7 c 1.4,10.5 4.9,35 -234.4,262.6"
         class="st3" />
      <path
         style="fill:#2498a5"
         id="path1576"
         d="m 1582.6,6769.1 -4.1,-5.1 c 76.1,-66.6 307.7,-269.3 284.1,-308.7 l 1.1,1.3 3.1,3.8 c 9.2,35.1 -86.4,138.9 -284.2,308.7"
         class="st3" />
      <path
         style="fill:#2498a5"
         id="path1578"
         d="m 1192.9,7096.7 -2.2,-2.9 c 517.2,-366.3 714.9,-580.4 690.1,-615.5 l 4.1,5.4 c 20.9,79 -400.5,412.5 -692,613"
         class="st3" />
      <path
         style="fill:#2498a5"
         id="path1580"
         d="m 1695.1,7115.1 -1.4,-5.6 c 243.8,-120.5 341.2,-208.3 336.2,-303.1 l 1.4,7 c 3.1,95.4 -97.5,185.7 -336.2,301.7"
         class="st3" />
      <path
         style="fill:#2498a5"
         id="path1582"
         d="m 1858.6,7093.1 -0.8,-6.2 c 66.4,-42 190.1,-120.3 182.6,-213.8 l 0.8,7 c -1.6,37.7 -4.5,108 -182.6,213"
         class="st3" />
      <path
         style="fill:#2498a5"
         id="path1584"
         d="m 1397.4,7311.8 -0.4,-3.7 c 613.8,-119.6 647.6,-313.1 648.2,-350.7 l 0,7.2 c -31.9,231.3 -545.2,329.8 -647.8,347.2"
         class="st3" />
      <path
         style="fill:#2498a5"
         id="path1586"
         d="m 1614.7,7274.7 -0.2,-4.8 c 103.2,-31.5 417.3,-127.4 430.7,-295.4 l -0.2,7.1 c -7.1,44.2 -28.4,178.5 -430.3,293.1"
         class="st3" />
      <path
         style="fill:#2498a5"
         id="path1588"
         d="m 1916.1,7175.8 0.3,-6 c 57.8,-41.2 117.5,-83.8 127.5,-163.5 l -0.5,7.1 c -10.2,52 -25.3,94 -127.3,162.4"
         class="st3" />
      <path
         style="fill:#2498a5"
         id="path1590"
         d="m 1952.1,7269.5 1.5,-5.5 0,-0.1 c 33.7,-34.7 50.7,-52.2 62.4,-92.3 l -2,6.9 c -15.2,36.8 -23.6,57.1 -61.9,91"
         class="st3" />
      <path
         style="fill:#2498a5"
         id="path1592"
         d="m 1780.7,7392.5 1.5,-4.9 c 75.7,-28.7 179.4,-67.9 218.3,-167.4 l -1.7,4.7 -0.7,2 c -21.2,43.9 -53.3,109.9 -217.4,165.6"
         class="st3" />
      <path
         style="fill:#2498a5"
         id="path1594"
         d="m 1300.6,7454.6 0.7,-2.6 c 497.8,40.9 640,-97.4 680.5,-183.5 l -2.9,6.6 c -121.6,214.1 -514.9,196.8 -678.3,179.5"
         class="st3" />
      <path
         style="fill:#2498a5"
         id="path1596"
         d="m 1325.1,7497.1 1.1,-2.6 c 222.1,28 508.1,27.4 608.9,-134.6 l -3.7,6.1 c -123.9,166.7 -398.1,163.3 -606.3,131.1"
         class="st3" />
      <path
         style="fill:#2498a5"
         id="path1598"
         d="m 1750.9,7494.3 2.5,-4.2 c 92,-33.2 125.9,-52.4 172.9,-115.6 l -3.9,6.1 c -43.8,56.4 -73.2,79.5 -171.5,113.7"
         class="st3" />
      <polyline
         style="fill:#2498a5"
         id="polyline1600"
         points="1879.4,7439.7 1882.5,7435.4 1899.7,7414.4 1895.5,7420.3 1879.4,7439.7     "
         class="st3" />
      <path
         style="fill:#2498a5"
         id="path1602"
         d="m 1305,7068.6 -2.4,-3.6 c 103.7,-66.8 346.6,-223.3 519.1,-386.4 47.4,-47.7 112.3,-112.9 96.1,-147.7 l 3.7,5.7 c 22.9,90.6 -317.8,343.2 -616.5,532"
         class="st3" />
      <path
         style="fill:#2498a5"
         id="path1604"
         d="m 723.8,6795.5 -3.1,0.7 c -3.4,-425.4 116.7,-542.2 188.6,-574 l 6.2,-2.6 c -175.9,93.1 -195.6,400.8 -191.7,575.9"
         class="st3" />
      <path
         style="fill:#2498a5"
         id="path1606"
         d="m 809.5,6913.2 -2.7,-0.1 c 35,-427.7 146.6,-706.5 298.4,-745.7 l 6.5,-1 c -152.4,40.3 -265.4,319.5 -302.2,746.8"
         class="st3" />
      <path
         style="fill:#2498a5"
         id="path1608"
         d="m 1140.3,6525.7 -5.2,-1.7 c 84,-150.6 205.4,-350 289,-342.1 l 6.1,1.5 c -24.1,-0.7 -97.5,-2.9 -289.9,342.3"
         class="st3" />
      <path
         style="fill:#2498a5"
         id="path1610"
         d="m 1093.7,6691.1 -4.3,-1.8 -0.1,0 c 221.3,-415.8 327.7,-499 378,-495.6 l 6,1.8 c -50.3,-2.6 -156.9,81.3 -379.6,495.6"
         class="st3" />
      <path
         style="fill:#2498a5"
         id="path1612"
         d="m 1199,6450.5 -5.7,-1.9 c 47.1,-75.9 100.4,-161.9 169.4,-227.5 38.2,-30.9 48.1,-36.8 75.8,-35.6 l 6.1,1.6 c -24.6,-0.8 -82.2,-2.9 -245.6,263.4"
         class="st3" />
      <path
         style="fill:#2498a5"
         id="path1614"
         d="m 1541.9,6324.5 -6.1,-3.4 c 30.6,-31.6 68.7,-70.9 83,-64.8 l 5.6,3 c -9.5,0 -21.4,0 -82.5,65.2"
         class="st3" />
      <path
         style="fill:#2498a5"
         id="path1616"
         d="m 1097.4,6310.3 -5.9,-0.5 c 63.9,-97.8 105.8,-145.3 171.1,-150.9 l 6.3,0.3 c -60,6.1 -100.1,41.4 -171.5,151.1"
         class="st3" />
      <path
         style="fill:#2498a5"
         id="path1618"
         d="m 1353,6668.4 -4.8,-3.5 c 256.4,-307.7 323.5,-371.3 334.7,-370.6 l 5.3,3.5 c -26.2,7.4 -196.8,205.6 -335.2,370.6"
         class="st3" />
      <path
         style="fill:#2498a5"
         id="path1620"
         d="m 1590.2,6468.4 -5.6,-4.3 c 42.4,-46.7 130.7,-143.8 135.4,-143.9 l 5.1,3.8 c -4,3.1 -12.2,9.4 -134.9,144.4"
         class="st3" />
      <path
         style="fill:#2498a5"
         id="path1622"
         d="m 1791.2,6646.3 -4.2,-5.8 -0.1,-0.1 c 63.8,-64.4 115.6,-120 103.5,-149.3 l 4,5.4 c 6.3,24 -8.6,56.1 -103.2,149.8"
         class="st3" />
      <path
         style="fill:#2498a5"
         id="path1624"
         d="m 1535.3,6480.2 -5.6,-4.1 c 109.9,-124.1 153.3,-169.5 166,-173.4 l 5.2,3.6 c -12.8,5.2 -56.2,50.7 -165.6,173.9"
         class="st3" />
      <path
         style="fill:#2498a5"
         id="path1626"
         d="m 1830.5,6993.2 -1.8,-6.4 c 127.3,-87.1 199.2,-152.5 189.8,-229 l 1.8,6.8 c 5,59.2 -25.1,118.1 -189.8,228.6"
         class="st3" />
      <path
         style="fill:#2498a5"
         id="path1628"
         d="m 1515,6662.7 -4.4,-4.1 -0.4,-0.3 c 127.6,-130.6 259.1,-267.4 266.9,-291.5 -0.1,-0.1 -0.1,-0.2 -0.2,-0.3 l 4.8,4.3 c -2.6,17.3 -92.4,115.5 -266.7,291.9"
         class="st3" />
      <path
         style="fill:#2498a5"
         id="path1630"
         d="m 1328.6,6833.7 -3.8,-3.6 c 352.2,-359.3 435.2,-454.9 442.8,-471.8 0,-0.1 -0.1,-0.2 -0.2,-0.3 l 4.9,4.2 c -8.2,31.8 -371.1,398.4 -443.7,471.5"
         class="st3" />
      <path
         style="fill:#2498a5"
         id="path1632"
         d="m 1594.3,7311.9 0,-4.6 c 104.8,-27.1 423.6,-109.6 448.4,-284.2 l -0.6,7.1 c -9.9,45.6 -39.9,184.3 -447.8,281.7"
         class="st3" />
      <path
         style="fill:#2498a5"
         id="path1634"
         d="m 1725.5,6751 -3.9,-5.8 c 67.7,-58.9 208.6,-181.4 187.3,-227.8 l 3.8,5.6 c 4.7,18.3 14.5,56.6 -187.2,228"
         class="st3" />
      <path
         style="fill:#2498a5"
         id="path1636"
         d="m 1887.5,6670.3 -3.7,-6.2 -0.1,-0.2 c 53.3,-63.7 58,-77.8 51,-105.5 l 3.5,5.9 c 5,20.6 4.8,21.6 -10,52.6 -8.7,18.2 -27.7,38 -40.7,53.4"
         class="st3" />
      <path
         style="fill:#2498a5"
         id="path1638"
         d="m 1679.5,7379.2 0,0 0.9,-4.6 c 102.9,-26.5 294.5,-75.8 339.2,-216.6 l -1.9,6.9 c -19,48.4 -58.7,149.2 -338.2,214.3"
         class="st3" />
      <path
         style="fill:#2498a5"
         id="path1640"
         d="m 1593.8,6738.7 -3.9,-4.7 -0.3,-0.4 c 135.3,-122 272.3,-251.9 263,-290.2 l 4.3,5 c 9.7,39.8 -127.6,169.1 -263.1,290.3"
         class="st3" />
      <path
         style="fill:#2498a5"
         id="path1642"
         d="m 1743.8,6575.3 -4.4,-5.1 -0.4,-0.4 c 61.3,-63.9 111.4,-118.5 103.3,-138 l 4.3,4.9 c 3.7,16.9 -11.9,45 -102.8,138.6"
         class="st3" />
      <path
         style="fill:#2498a5"
         id="path1644"
         d="m 1916.7,6712.4 -3.4,-6.6 c 36.5,-45.5 55,-70.8 45.1,-104.3 l 3.1,6.2 c 6.2,27.5 3.8,45.7 -44.8,104.7"
         class="st3" />
      <path
         style="fill:#2498a5"
         id="path1646"
         d="m 1800,7045.6 -1.5,-6.1 c 79.4,-48.5 244.5,-149.5 228,-249.7 l 1.5,7 c 1.8,36.6 5.7,112.7 -228,248.8"
         class="st3" />
      <path
         style="fill:#2498a5"
         id="path1648"
         d="m 1402.3,7302 -0.5,-3.7 C 2015,7169 2045.1,6977.5 2044.9,6940.4 l 0.1,7.2 c -26.7,228.3 -540,335.3 -642.7,354.4"
         class="st3" />
      <path
         style="fill:#2498a5"
         id="path1650"
         d="m 1549.9,7497.1 1.6,-3.6 c 162.2,-11 322.9,-38.5 400.5,-163.3 l -3.4,6.3 c -51.7,75.6 -135.7,147.4 -398.7,160.6"
         class="st3" />
      <path
         style="fill:#2498a5"
         id="path1652"
         d="m 1732.9,6908.9 -2.9,-6.1 c 75,-53.4 274.2,-195.3 242.9,-271.5 l 2.9,6.4 c 5.2,25.1 19.2,92 -242.9,271.2"
         class="st3" />
      <path
         style="fill:#2498a5"
         id="path1654"
         d="m 1519.3,6617 -5,-4.4 c 70.9,-75.3 237,-251.5 241.4,-264.4 l 4.9,4.1 c -3.7,8.9 -34.5,47 -241.3,264.7"
         class="st3" />
      <path
         style="fill:#2498a5"
         id="path1656"
         d="m 1644,7080.1 -1.8,-5.5 c 107.4,-55.8 392.8,-204.1 371.9,-332.9 l 1.9,6.8 c 3.3,33.8 13.4,136.8 -372,331.6"
         class="st3" />
      <path
         style="fill:#2498a5"
         id="path1658"
         d="m 1969,6997.2 -0.9,-6.6 c 47.1,-48.9 71.6,-77.1 70.3,-134.3 l 0.9,7 c -1.2,46.3 -7.8,71.3 -70.3,133.9"
         class="st3" />
      <path
         style="fill:#2498a5"
         id="path1660"
         d="m 1281,7362.3 -0.1,-2.9 c 577.1,-42.1 749.4,-220.6 760.2,-319.4 l -0.8,7.1 c -39.7,168 -323.6,285.8 -759.3,315.2"
         class="st3" />
      <path
         style="fill:#2498a5"
         id="path1662"
         d="m 1554.8,6645 -4.8,-4.7 c 24,-24.3 56.1,-56.8 79.9,-81.3 116.4,-120.9 157.8,-168.7 158.4,-182.3 l 4.7,4.4 c -0.7,12.4 -28.3,53.5 -238.2,263.9"
         class="st3" />
      <path
         style="fill:#2498a5"
         id="path1664"
         d="m 1778.9,7500.1 2.8,-4.2 c 64.1,-30.1 84.4,-41.1 125.7,-92.7 l -4.1,5.9 c -37.2,44 -51.1,58.1 -124.4,91"
         class="st3" />
      <path
         style="fill:#2498a5"
         id="path1666"
         d="m 1892,7230.4 0.6,-5.8 c 77.6,-48.9 129.7,-87 146.6,-167.8 l -0.9,7 c -16.4,64 -41.4,103.3 -146.3,166.6"
         class="st3" />
      <path
         style="fill:#2498a5"
         id="path1668"
         d="m 1648.5,7342.7 0.5,-4.4 0,-0.3 c 105.2,-27.4 351.7,-91.5 385.3,-247.8 l -1.2,7.1 c -13.8,45.7 -50.2,166.7 -384.6,245.4"
         class="st3" />
      <path
         style="fill:#2498a5"
         id="path1670"
         d="m 2001.4,7155.2 0.9,-6 c 25.8,-39.7 27.9,-42.9 34.7,-75.7 l -1.1,7.2 c -11,39.4 -12.2,43.6 -34.5,74.5"
         class="st3" />
      <path
         style="fill:#2498a5"
         id="path1672"
         d="m 1164.9,6927.5 -3.2,-2.6 c 304.7,-356.8 519,-597.7 545.8,-613.6 0.1,0 0.2,0 0.3,0.1 l 5.1,3.7 c -27.2,15.1 -342.6,374.5 -548,612.4"
         class="st3" />
      <path
         style="fill:#2498a5"
         id="path1674"
         d="m 1802.6,7167.5 -0.5,-5.8 c 74,-37.9 247.2,-126.7 242.2,-238.4 l 0.3,7.2 c -8.5,88.6 -71.8,150.6 -242,237"
         class="st3" />
      <path
         style="fill:#2498a5"
         id="path1676"
         d="m 1331.4,7537.7 1.5,-2.5 c 101.9,17.6 412,71.1 544.2,-90.6 l -4.5,5.6 c -105.5,109.8 -287.6,139.2 -541.2,87.5"
         class="st3" />
      <path
         style="fill:#2498a5"
         id="path1678"
         d="m 1729.1,7249.7 -0.1,-5.3 c 177.2,-69 298.6,-138.8 315.7,-255.1 l -0.3,7.1 c -15.2,86.1 -74.6,162.2 -315.3,253.3"
         class="st3" />
      <path
         style="fill:#2498a5"
         id="path1680"
         d="m 1894.3,6849.1 -2.6,-6.7 c 47.4,-43.8 118.9,-109.9 100.9,-164.4 l 2.5,6.7 c 4.3,26.7 10.8,67.2 -100.8,164.4"
         class="st3" />
      <path
         style="fill:#2498a5"
         id="path1682"
         d="m 1401.4,6293.2 -6.3,-2.4 c 48.4,-53 82.6,-87.5 114.7,-83 l 5.9,2.2 c -13.9,-1 -21.5,-1.5 -45.8,16.2 -23.5,17.1 -44.3,40.2 -68.5,67"
         class="st3" />
      <path
         style="fill:#2498a5"
         id="path1684"
         d="m 1984.5,7248.7 1,-3 0.8,-2.5 c 6.6,-12.4 15.8,-28.8 20.7,-42 l -2.2,6.8 c -5.7,12.4 -13,29.2 -20.3,40.7"
         class="st3" />
      <path
         style="fill:#2498a5"
         id="path1686"
         d="m 1640,6606.5 -4.9,-5 c 14.8,-14.8 34.5,-34.6 49.1,-49.5 44.1,-45.8 135.7,-141 126.2,-153.9 l 4.6,4.6 c 0.7,8.2 2.5,27.7 -175,203.8"
         class="st3" />
      <path
         style="fill:#2498a5"
         id="path1688"
         d="m 1630.4,6474.5 -5.5,-4.6 c 73.3,-79.6 114,-124.1 119.1,-131.3 l 5,4 c -5.3,8.3 -36.3,42.8 -118.6,131.9"
         class="st3" />
      <path
         style="fill:#2498a5"
         id="path1690"
         d="m 1361.8,6964 -3,-3.9 c 502.3,-389.6 520.2,-475.4 513.8,-492.4 l 4.1,5.2 c 13.5,51.1 -179,234.7 -514.9,491.1"
         class="st3" />
      <path
         style="fill:#2498a5"
         id="path1692"
         d="m 1769.3,6960 -2.4,-6.2 c 129.7,-87.4 247.5,-179.4 231.5,-260 l 2.4,6.7 c 8.5,58.4 -27.6,124.9 -231.5,259.5"
         class="st3" />
      <path
         style="fill:#2498a5"
         id="path1694"
         d="m 1265.9,7135.9 -1.9,-3.4 c 489.4,-265.3 716,-475.3 686.8,-545.6 l 3.2,6.1 c 24.7,106.8 -327.5,354 -688.1,542.9"
         class="st3" />
      <path
         style="fill:#2498a5"
         id="path1696"
         d="m 1616.9,7360.3 0.5,-4.5 c 182.1,-41 373.7,-102.6 413.8,-248.4 l -1.4,7.1 c -25.8,79.5 -96,179.2 -412.9,245.8"
         class="st3" />
      <path
         style="fill:#2498a5"
         id="path1698"
         d="m 1539.2,7191.7 -1.1,-4.7 c 332.4,-126.5 498.9,-248.9 495,-364 l 1.2,7 c 1.6,117.2 -165,238.9 -495.1,361.7"
         class="st3" />
      <path
         style="fill:#2498a5"
         id="path1700"
         d="m 1900.9,6962.4 -1.7,-6.6 c 57.3,-46.6 135.7,-110.5 123.4,-182.2 l 1.6,6.8 c 2.4,34.6 5.7,82.1 -123.3,182"
         class="st3" />
      <path
         style="fill:#2498a5"
         id="path1702"
         d="m 1321.5,7032.7 -2.6,-3.7 c 79.1,-55.1 211.6,-147.2 347.8,-259.4 70.6,-59.6 258,-217.9 233,-265.4 l 3.9,5.6 c 19.5,74.4 -278.3,316.3 -582.1,522.9"
         class="st3" />
    </g>
  </g>
</svg>
